<svg width="58" height="46" viewBox="0 0 58 46" fill="none" xmlns="http://www.w3.org/2000/svg">
<g clip-path="url(#clip0_2126_84)">
<path d="M31.0742 0.0251465H46.1007C53.3648 0.0251465 57.9998 5.58611 57.9998 13.0706C57.9998 20.6414 53.2652 26.227 46.1007 26.227H35.5597V45.8692H31.0742V0.0251465ZM46.1007 20.8388C50.4741 20.8388 53.4271 17.7931 53.4271 13.0953C53.4271 8.39743 50.5862 5.46281 46.1007 5.46281H35.5597V20.8388H46.1007Z" fill="black"/>
<path d="M0.0078125 0.0620117H15.0343C22.2983 0.0620117 26.9334 5.62299 26.9334 13.1075C26.9334 20.6783 22.1987 26.2639 15.0343 26.2639H4.49334V45.9061H0.0078125V0.0620117ZM15.0343 20.888C19.4078 20.888 22.3607 17.8423 22.3607 13.1445C22.3607 8.44662 19.5323 5.51201 15.0343 5.51201H4.49334V20.8756H15.0343V20.888Z" fill="black"/>
<path d="M54.8391 45.9749C56.6667 45.9749 57.9826 44.6392 57.9826 42.9519C57.9826 41.1943 56.6667 39.9288 54.8391 39.9288C53.0847 39.9288 51.6226 41.2646 51.6226 42.9519C51.6226 44.6392 53.0847 45.9749 54.8391 45.9749Z" fill="black"/>
</g>
<defs>
<clipPath id="clip0_2126_84">
<rect width="58" height="46" fill="white"/>
</clipPath>
</defs>
</svg>
