<?xml version="1.0" encoding="UTF-8"?>
<svg id="Calque_2" data-name="Calque 2" xmlns="http://www.w3.org/2000/svg" viewBox="0 0 1385.15 326.48">
  <g id="Calque_1-2" data-name="Calque 1">
    <path d="m794.92,52.15c-.38-.59-.98-1.52-1.69-2.62.88-.67,1.47-1.22,2.15-1.63,30.83-18.61,64.13-30.99,99.11-39.08C920,2.91,945.92-.1,972.07,0c62.95.24,121.62,16.79,176.49,47.32,2.58,1.44,4.37,2.68,1.27,5.18-118.1-63.9-236.07-64.76-354.9-.36Z"/>
    <path d="m588.39,49.07c-.85,4.82-3.16,3.2-5.63,1.84-30.38-16.75-62.29-29.56-96.16-37.48-34.27-8.02-68.9-10.69-103.98-7.97-48.86,3.78-94.91,17.15-138.13,40.21-3.37,1.8-6.52,4.02-9.96,5.66-1.18.56-2.92-.05-4.5-1.09,41.52-26.33,86.85-41.27,135.09-47.36,79.63-10.05,153.76,7.1,223.27,46.2Z"/>
    <path d="m844.99,167.84c-1.07.83-2.04,1.92-3.25,2.4-1.01.4-2.3.09-3.46.09-123.07,0-246.13,0-369.2-.08-2.09,0-6.02-1.36-5.99-1.84.36-4.43,4.05-2.2,6.14-2.21,122.9-.13,245.8-.11,368.7-.11h5.91c.38.58.77,1.17,1.15,1.75Z"/>
    <path d="m62.7,78.8c-3.62,1.42-5.54.64-7.15-2.58-5.4-10.81-11.12-21.46-17.65-32.1v35.08h-5.71c0-2.17,0-4.27,0-6.37,0-12.48-.06-24.96.08-37.43.02-1.49,1.17-2.97,1.8-4.46,1.68.94,4.13,1.45,4.92,2.87,5.31,9.58,10.26,19.35,15.34,29.06.58,1.11,1.23,2.19,2.84,3.13,0-9.36-.19-18.72.13-28.06.08-2.37-2.47-6.99,2.71-6.87,5.04.11,2.49,4.65,2.55,7.04.29,11.8.13,23.62.13,35.43,0,1.8,0,3.6,0,5.26Z"/>
    <path d="m975.61,171.74c0-10.11-.04-20.22.03-30.33.01-1.93-.98-4.64,2.65-4.71,3.6-.07,2.81,2.56,2.82,4.56.04,14.45.02,28.9.02,43.3-3.79,1.62-5.67.46-7.31-2.82-5.34-10.69-10.99-21.23-17.37-31.81v35.01h-5.83c0-12.86,0-25.47,0-38.09,0-2-.21-4.02.07-5.98.21-1.42,1.08-2.74,1.66-4.11,1.71.88,4.21,1.32,5.01,2.72,4.42,7.79,8.43,15.81,12.59,23.75,1.52,2.91,3.04,5.81,4.56,8.72.37-.07.73-.14,1.1-.21Z"/>
    <path d="m1019.36,149.39c-2.88,1.73-4.69,1.52-6.05-1.61-1.73-3.97-4.98-6.38-9.37-6.26-4.55.12-7.72,2.81-9.64,6.83-3.44,7.21-3.77,14.71-1.55,22.31,1.82,6.21,6.12,9.92,11.07,9.77,4.71-.14,9.14-4.54,10.47-10.51.29-1.28.33-2.62.54-4.36-3.39-.15-6.62-.29-10.15-.45-.1-1.84-.19-3.44-.3-5.37h15.48c0,8.21,0,16.57,0,24.94q-4.15.67-4.77-3.86c-.31.03-.77-.05-.91.13-7.52,9.23-20.85,6.76-25.65-5.83-3.77-9.88-3.5-19.88.94-29.53,3.11-6.76,9.5-10.6,15.84-10.02,6.91.62,11.99,5.53,14.05,13.83Z"/>
    <path d="m621.11,325.08v-48.16c9.88.72,20.41-3.05,27.64,7.01,5.91,8.23,5.97,24.78.2,33.65-7.02,10.79-17.83,6.81-27.84,7.5Zm5.59-41.9v35.87c6.89.12,14.04,1.7,18-5.57,4.47-8.23,4.57-17.03.06-25.15-3.96-7.12-11.26-5.34-18.05-5.14Z"/>
    <path d="m1287.16,53.85h15.04v24.94q-3.9.66-5.34-3.75c-11.57,9.55-22.67,6.01-27.03-8.67-2.5-8.42-2.08-16.74,1.2-24.87,3.12-7.72,9.45-12.23,16.21-11.78,7.09.47,12,5.08,14.53,13.75-2.93,2.1-4.6,1.42-6.4-1.87-4.4-8.04-13.72-8.05-18.21.05-4.63,8.35-4.44,17.24-.95,25.94,1.7,4.23,4.9,7.17,9.91,7.01,4.78-.16,7.51-3.21,9.23-7.23.96-2.23,1.46-4.66,2.33-7.56-3.86-.2-7.08-.36-10.54-.54v-5.42Z"/>
    <path d="m1095.08,149.25c-3,1.81-4.67,1.72-6.45-1.58-4.51-8.39-13.83-8.38-18.43-.02-4.42,8.04-4.25,16.6-1.16,25.03,1.71,4.65,4.96,7.98,10.43,7.71,5.24-.27,7.81-3.98,9.55-8.3.79-1.94.99-4.12,1.58-6.71h-10.2v-5.74h14.82v25.16c-.35.35-.71.7-1.06,1.05-1.56-1.37-3.12-2.73-4.66-4.09-2.44,1.23-5.56,3.66-9.03,4.37-6.72,1.37-12.9-2.73-16.05-9.96-3.82-8.74-3.97-17.71-1.08-26.75,2.77-8.62,9.04-13.95,16.25-13.91,7.17.04,12.22,4.43,15.49,13.72Z"/>
    <path d="m761.87,301.15c-1.69,5.59-2.54,11.13-4.96,15.85-6.17,11.99-21.21,12.66-29,1.68-6.62-9.33-6.6-26.03.03-35.31,7.8-10.93,22.26-10.5,28.63,1.33,2.66,4.94,3.56,10.83,5.3,16.45Zm-34.21.36c1.52,4.42,2.41,9.08,4.62,12.99,4.58,8.08,14.65,8.1,19.45.16,5.33-8.82,5.17-18.11.26-26.97-4.64-8.37-15.64-8.2-20.08.32-2.08,4-2.8,8.71-4.25,13.5Z"/>
    <path d="m101.36,31c5.92,0,11.56-.38,17.13.11,5.18.45,8.81,3.53,10.41,8.68,2.09,6.72.53,12.4-4.41,16.67,2.01,7.68,3.95,15.09,5.89,22.5-4.13,1.42-6.28.34-6.79-3.89-.33-2.77-1.11-5.5-1.75-8.23-1.66-7.12-3.16-8.29-10.57-8.25-1.47,0-2.95,0-4.9,0v20.47c-1.83.19-3.22.33-5.02.51V31Zm4.89,21.66c3.69,0,6.81.05,9.93-.01,5.69-.11,8.74-3.21,7.73-8.86-.41-2.29-2.6-5.59-4.52-6.02-4-.9-8.37-.22-12.58-.06-.21,0-.52,1.15-.53,1.76-.05,4.25-.02,8.5-.02,13.19Z"/>
    <path d="m1335.34,36.93h-20.98v14.51h19.43c.12,2.07.21,3.64.34,5.81h-19.81v16.15h21.49v5.8h-27.41v-16.08c0-9.14.14-18.28-.07-27.42-.08-3.57.74-5.12,4.66-4.92,6.14.31,12.32.29,18.46.01,4.45-.2,5.12,1.79,3.89,6.13Z"/>
    <path d="m1106.6,157.42h20.03v5.83h-19.71v16.03h21.9v5.74h-27.14v-48h26.59v5.74c-5.85,0-11.62.14-17.39-.06-3.18-.11-4.59.81-4.35,4.19.24,3.41.05,6.85.05,10.54Z"/>
    <path d="m699.58,31.22c.09,1.76.17,3.36.28,5.71-5.91,0-11.52.26-17.1-.09-4.1-.25-5.3,1.29-4.95,5.12.27,2.94.05,5.93.05,9.53h20.19v5.86h-19.83v16.18h22.03v5.62h-27.26V31.22h26.58Z"/>
    <path d="m733.66,42.94c-2.2.5-3.74.86-5.24,1.2-3.26-7.05-7.03-9.8-11.83-8.11-1.95.69-4.5,2.56-4.81,4.25-.4,2.21.42,5.61,2.01,6.99,2.79,2.41,6.55,3.74,9.96,5.4,7.87,3.84,11.43,9.52,10.13,16.36-1.27,6.72-5.16,10.65-11.32,11.44-7.5.96-13.19-1.89-16-8.18-.86-1.93-1.36-4.02-2.18-6.49,1.85-.53,3.36-.96,5.14-1.47,1.67,5.31,3.34,10.27,9.93,10.3,4.06.02,7.28-1.48,8.71-5.32,1.48-3.98-.22-7.26-3.7-9.34-2.83-1.69-6.18-2.54-8.9-4.36-3.09-2.07-6.51-4.32-8.4-7.35-3.58-5.73-1.28-13.4,4.1-16.6,6.17-3.68,15-2.21,18.81,3.42,1.51,2.24,2.29,4.98,3.56,7.85Z"/>
    <path d="m162.62,31.28v5.58h-21.35v14.67h19.67v5.88h-19.74v16.08h22.16c.1,2.03.18,3.6.29,5.59h-27.36V31.28h26.33Z"/>
    <path d="m1340.28,65.75c1.98-.56,3.35-.95,4.92-1.4.92,2.18,1.56,4.2,2.57,6.01,2.16,3.88,5.97,5.28,9.77,3.94,2.58-.9,5.42-3.39,6.46-5.87,1.61-3.83-.78-7.04-4.38-8.92-2.78-1.45-5.72-2.59-8.54-3.97-7.78-3.8-10.82-9.47-9.02-16.7,1.47-5.9,6.27-9.26,13.08-9.14,7.54.13,12.08,4.43,13.76,13.27-1.49.42-3,.84-3.25.92-3.19-3.04-5.35-6.03-8.26-7.62-3.62-1.97-8.5.04-9.79,3.35-1.59,4.09.15,7.18,3.72,9.17,3.76,2.09,7.8,3.67,11.53,5.8,5.24,2.99,7.68,7.7,7.13,13.72-.57,6.23-4.49,10.64-10.28,11.98-6.71,1.55-13.42-.94-16.43-6.45-1.3-2.38-1.91-5.13-2.97-8.08Z"/>
    <path d="m658.89,277.13h26.43c.08,1.81.15,3.4.25,5.61h-21.7v14.34h19.57v6.05h-19.6v15.95h22.12c.12,2.02.23,3.71.35,5.74h-27.43v-47.68Z"/>
    <path d="m603.06,319.06v5.75h-27.11v-47.51h26.42c.08,1.63.15,3.22.26,5.43h-21.7v14.34h19.56v6.05h-19.59v15.95h22.16Z"/>
    <path d="m385.68,185.01v-47.9h26.63c.13,1.55.27,3.12.46,5.39h-21.73v14.79h19.39v5.81h-19.41v16.11h21.58v5.8h-26.93Z"/>
    <path d="m5.16,36.86v14.47h19.42v6.15H5.16v15.91h21.81v5.72H0V31.18h26.63v5.68H5.16Z"/>
    <path d="m540.84,311.49c1.3-.43,2.67-.87,4.43-1.45.6,1.7,1.07,3.24,1.69,4.73,1.87,4.47,5.36,6.02,10.03,5.54,3.97-.4,6.59-2.56,7.4-6.3.97-4.46-1.82-7.19-5.43-9.06-2.79-1.45-5.78-2.5-8.59-3.91-7.18-3.61-10.26-9.85-8.39-16.72,1.51-5.55,7.1-9.22,13.49-8.85,7.49.43,12.12,4.97,13.27,13.22-1.32.47-2.69.95-4.34,1.54-.85-1.72-1.49-3.38-2.43-4.86-2.14-3.34-5.53-4.71-9.04-3.42-2.27.83-4.92,3.03-5.63,5.2-1.15,3.55,1.41,6.25,4.61,7.88,2.81,1.42,5.76,2.55,8.56,3.99,8.11,4.17,11.19,10.68,8.82,18.38-1.91,6.21-7.84,9.61-15.46,8.85-7.58-.75-12.05-5.72-13.01-14.75Z"/>
    <path d="m837.42,282.94h-21.73v14.23h19.51v5.86h-19.5v16.13h21.74c.12,2.06.21,3.65.33,5.6h-27.29v-47.52h26.65c.08,1.69.16,3.27.28,5.69Z"/>
    <path d="m1266.16,78.92c-4.06,1.43-5.67.13-6.68-3.31-3-10.15-3.14-9.78-13.24-10.25-5.17-.24-7.25,1.39-8.38,6.38-.75,3.33-.11,9.72-7.58,7.13,4.74-15.27,9.38-30.46,14.28-45.57.38-1.17,2.54-2.34,3.94-2.42,1.14-.07,3.1,1.26,3.46,2.37,4.85,15.12,9.48,30.32,14.22,45.66Zm-24.04-19.74h12.31c-1.99-6.61-3.83-12.74-5.67-18.87-.35.04-.71.08-1.06.11-1.85,6.24-3.71,12.47-5.58,18.76Z"/>
    <path d="m1023.4,184.71c4.73-15.26,9.37-30.45,14.27-45.56.38-1.17,2.53-2.35,3.93-2.44,1.14-.07,3.11,1.25,3.47,2.36,4.85,15.12,9.48,30.32,14.19,45.57-4.18,1.84-5.73,0-6.78-3.67-2.77-9.68-2.9-9.32-13.1-9.78-5.15-.23-7.27,1.35-8.4,6.36-.75,3.33-.09,9.75-7.58,7.16Zm24.19-19.55c-1.97-6.59-3.84-12.8-5.7-19.02-.37.06-.75.13-1.12.19-1.83,6.22-3.66,12.43-5.54,18.83h12.35Z"/>
    <path d="m911.77,184.47c4.73-15.15,9.4-30.32,14.29-45.42.36-1.1,2.23-2.3,3.46-2.36,1.24-.06,3.36.98,3.69,2,4.93,15.25,9.62,30.57,14.38,45.91q-4.84.96-9.63-13.04c-1.22-.07-2.53-.23-3.84-.22-3.99.02-8.91-1.3-11.69.56-2.63,1.76-2.71,7.04-4.51,10.45-.86,1.63-3.12,2.53-4.75,3.77-.47-.54-.94-1.09-1.41-1.63Zm17.99-40.25c-2.35,7.88-4.27,14.31-6.21,20.79h12.26c-1.97-6.79-3.81-13.08-6.05-20.79Z"/>
    <path d="m1205.62,58.58v20.56c-1.86.12-3.25.21-4.99.33V31.19c5.86,0,11.69-.58,17.35.14,7.49.96,11.17,7.09,10.3,15.51-.77,7.46-5.32,11.65-12.81,11.73-3.12.04-6.24,0-9.84,0Zm-.03-5.92c4.35,0,7.66.6,10.6-.19,2.34-.62,4.87-2.54,6.16-4.6,2.08-3.32,1.22-7.89-2.05-9.12-4.22-1.59-9.25-1.03-13.94-1.29-.22-.01-.72,1.09-.73,1.68-.06,4.41-.03,8.83-.03,13.52Z"/>
    <path d="m688.69,277.57c4.08-1.75,5.71-.14,6.64,3.44,2.76,10.53,5.73,21.01,9.65,31.63,1.12-3.8,2.3-7.58,3.36-11.4,1.85-6.7,3.6-13.43,5.44-20.14,1.2-4.38,1.24-4.37,6.64-3.66-3.74,13.04-7.46,26.03-11.19,39-.5,1.75-.83,3.62-1.69,5.18-.74,1.34-2.12,2.33-3.21,3.47-.93-1.13-2.33-2.11-2.73-3.4-3.75-12.36-7.34-24.77-10.96-37.16-.65-2.22-1.25-4.45-1.95-6.97Z"/>
    <path d="m359.52,179.39h21.68v5.53h-26.58c-.17-.6-.57-1.35-.58-2.11-.05-14.13-.11-28.27.06-42.4.02-1.24,1.49-3.3,2.6-3.54,3.05-.66,2.81,1.87,2.81,3.88,0,12.63,0,25.26,0,38.64Z"/>
    <path d="m79.08,36.89h-12.79v-5.64h30.53v5.68c-2.28,0-4.44.24-6.52-.05-4.7-.65-6.33.96-6.18,5.9.36,11.94.12,23.89.12,36.25h-5.15v-42.14Z"/>
    <path d="m888.2,179.46h21.88v5.49h-26.58v-47.95c1.42-.07,2.8-.13,4.7-.22v42.68Z"/>
    <path d="m646.57,73.69h21.76v5.46h-26.46V31.29c3.27-.97,4.82-.46,4.76,3.48-.19,12.74-.07,25.48-.07,38.92Z"/>
    <path d="m783.76,319.24h21.61v5.63h-26.56v-47.63h4.94v42.01Z"/>
    <path d="m771.5,324.96h-4.65v-47.78h4.65v47.78Z"/>
    <path d="m1378.7,87.59c.81-2.02,1.62-4.05,2.59-6.46-.94-.8-2.5-1.51-2.98-2.67-.62-1.5-.86-3.52-.34-4.99.35-.98,2.64-2.22,3.46-1.88,1.42.59,3.1,2.16,3.39,3.58,1.01,4.98-.24,9.47-4.32,12.84-.6-.14-1.2-.28-1.8-.43Z"/>
    <path d="m673.7,262.6c1.34,1.5,2.4,2.68,3.59,4.03-2.03,2.17-3.81,4.29-5.86,6.12-.73.65-2.09.59-3.17.85.04-1.01-.27-2.22.18-2.99,1.55-2.66,3.35-5.16,5.25-8Z"/>
  </g>
</svg>