<?xml version="1.0" encoding="UTF-8"?>
<svg id="Calque_2" data-name="Calque 2" xmlns="http://www.w3.org/2000/svg" viewBox="0 0 681.57 309.76">
  <g id="Calque_1-2" data-name="Calque 1">
    <path d="m434.21,43.05c4.08-13.04,8.16-26.08,12.26-39.17h5.7v48.02h-4.54V16.62c-.18-.03-.35-.06-.53-.09-.27.74-.57,1.47-.8,2.22-3.16,10.15-6.32,20.29-9.46,30.45-.93,3.01-.92,3.01-4.14,2.84-.24-.01-.48-.1-1.01-.21-3.73-11.67-7.51-23.46-11.28-35.25-.18.04-.37.07-.55.11v35.19h-4.52V3.91h5.63c4.16,13.04,8.33,26.13,12.51,39.21.25-.02.49-.05.74-.07Z"/>
    <path d="m467.26,296.63c-.74.06-1.3.15-1.87.15-.73,0-1.46-.07-2.52-.13,0-6.05,0-12,0-17.94s0-11.77,0-17.66c-.1-.04-.21-.07-.31-.11-.22.46-.51.91-.66,1.39-3.29,10.45-6.55,20.91-9.84,31.36-1.09,3.46-1.13,3.46-5.13,2.74-3.87-11.74-7.46-23.68-11.42-35.48-.19.03-.38.07-.58.1v35.56h-4.13c-.53-1.8-.73-43.53-.23-47.94h5.66c4.29,12.95,8.23,26.17,12.59,39.25l.55-.03c4.08-13.04,8.16-26.08,12.29-39.26h5.61v48Z"/>
    <path d="m372.15,296.56c-.55.07-.95.11-1.36.17-2.23.36-3.56-.4-4.68-2.56-5.58-10.77-11.37-21.43-17.09-32.13-.49-.92-1.04-1.81-1.56-2.71-.16.04-.33.09-.49.13v37.11h-4.54v-48.08c1.16,0,2.29.04,3.41-.01.97-.04,1.56.44,1.97,1.23.35.66.68,1.33,1.04,1.99,5.7,10.62,11.39,21.23,17.1,31.84.39.72.82,1.43,1.4,2.43.79-2.27.27-4.3.36-6.28.09-2.07.02-4.15.02-6.23s0-4.16,0-6.23,0-3.99,0-5.98c0-2.08,0-4.16,0-6.23,0-2.06,0-4.12,0-6.35h4.29c.54,1.69.7,44.56.15,47.9Z"/>
    <path d="m423.45,261.03c-.41.19-.68.37-.98.45-1.03.28-2.07.54-3.22.83-.5-1.05-.93-2.02-1.42-2.97-4.03-7.75-13.63-8.55-18.87-1.54-1.98,2.65-3.06,5.69-3.6,8.93-.87,5.14-.88,10.27.61,15.3,1.01,3.41,2.64,6.46,5.7,8.53,4.15,2.81,9.19,2.41,12.81-1.05,3.53-3.37,4.71-7.65,4.95-12.63h-10.37c-.66-2.01-.41-3.77-.19-5.68h14.69c.5,1.76.61,22.99.12,25.42h-3.53c-.15-1.83-.28-3.52-.46-5.72-.79.83-1.28,1.31-1.73,1.83-6.01,6.96-15.8,6.93-21.76-.1-3.22-3.8-4.81-8.32-5.48-13.17-.94-6.77-.55-13.44,1.92-19.88,1.08-2.82,2.61-5.38,4.76-7.54,6.34-6.38,16.02-6.02,21.82.83,2.01,2.37,3.3,5.12,4.22,8.16Z"/>
    <path d="m184.14,51.87c-.35.09-.58.19-.82.2-3.67.2-3.66.19-5.36-2.98-5.88-10.98-11.78-21.96-17.68-32.94-.3-.55-.67-1.06-1.4-1.51v37.31h-4.47V3.95c.64-.07,1.19-.12,1.75-.2,2.07-.3,3.26.53,4.27,2.45,5.9,11.26,11.95,22.43,17.96,33.63.23.43.51.83,1.08,1.75.41-2.96.18-5.39.22-7.79.04-2.49,0-4.99,0-7.48V3.94h4.43v47.92Z"/>
    <path d="m223.3,3.88c.6-.04,1.25-.13,1.89-.13,4.07-.01,8.15-.05,12.22.02,1.49.02,3.01.15,4.45.5,3.31.8,5.84,2.7,7.47,5.74,3.71,6.9,2.09,14.51-4.35,19.68,3.04,3.17,3.35,7.35,4.21,11.37.62,2.91,1.43,5.79,2.16,8.68.18.7.39,1.4.61,2.21h-4.93c-.61-2.62-1.22-5.18-1.81-7.75-.52-2.26-.95-4.55-1.55-6.79-.32-1.19-.82-2.35-1.41-3.44-1.02-1.89-2.61-2.91-4.86-2.87-3.14.06-6.28.01-9.76.01,0,3.59,0,6.96,0,10.34s0,6.78,0,10.4h-4.27c-.58-1.85-.68-45.22-.07-47.96Zm4.66,5.67c-.54,2.88-.44,14.13.15,16.03,3.44,0,6.92.04,10.39,0,5.86-.09,9.35-4.83,7.84-10.52-.84-3.16-2.83-5.21-6.04-5.43-4.11-.27-8.25-.07-12.34-.07Z"/>
    <path d="m495.13,27.95c-.05,4.49-.7,8.65-2.3,12.64-1.22,3.04-2.9,5.77-5.3,8.05-6.68,6.34-16.33,6.22-22.83-.28-2.52-2.52-4.28-5.5-5.41-8.85-2.82-8.35-2.58-16.65.7-24.82,1.18-2.95,2.88-5.62,5.3-7.75,7.88-6.93,19.11-5.27,25.04,3.72,3.51,5.31,4.69,11.27,4.78,17.3Zm-32.79.23c0,.83-.07,1.83.01,2.82.36,4.38,1.59,8.47,4.35,11.98,4.86,6.16,13.45,6.44,18.64.55,1.03-1.17,1.96-2.52,2.57-3.94,3.47-8.15,3.41-16.28-.51-24.28-1.15-2.34-2.84-4.29-5.17-5.58-5.93-3.28-13-1.31-16.61,4.71-2.5,4.17-3.53,8.73-3.27,13.74Z"/>
    <path d="m181.59,296.43v-47.78c.7-.06,1.26-.16,1.83-.16,3.91-.01,7.82-.05,11.73,0,7.74.12,13.42,3.98,16.01,11.26,3.03,8.52,2.98,17.16-.18,25.63-2.6,6.95-7.7,10.94-15.26,11.26-4.4.19-8.82.06-13.23.05-.23,0-.46-.13-.9-.27Zm4.63-5.42c4-.11,7.87.25,11.74-.22.16-.02.32-.1.48-.14,4.92-1.29,7.72-4.68,9.08-9.35,1.59-5.44,1.67-10.99.4-16.48-1.69-7.31-6.19-10.71-13.75-10.72-1.99,0-3.99-.02-5.98,0-.64,0-1.27.12-1.98.19v36.71Z"/>
    <path d="m223.83,291c3.81,0,7.52,0,11.24,0s7.27,0,11.05,0v5.59h-27.07v-47.96h26.54v5.32c-7.15.36-14.34-.04-21.48.21-.56,1.81-.69,11.31-.19,14.87h19.96v5.67c-6.66.26-13.27,0-20.05.16v16.14Z"/>
    <path d="m257.87,51.92c.01-16.02-.02-31.99.02-48.04h26.61v5.54h-21.75v15.12h20.09v5.56h-20.08v16.43h22.25v5.4h-27.14Z"/>
    <path d="m408.96,186.3h20.25v5.59h-19.86c-.65,2.11-.78,12.79-.23,16.32,3.66,0,7.38,0,11.1,0s7.28,0,11.08,0v5.72c-8.95.06-17.88.03-26.98.02v-48.13h26.56v5.38c-2.34.23-4.72.08-7.09.1-2.5.03-4.99,0-7.49,0h-7.34v15Z"/>
    <path d="m478.88,269.05h20.2v5.63c-6.7.32-13.39-.03-20.22.21v16.05h22.31v5.37c-1.77.54-23.8.68-26.94.13v-47.81h26.52v5.43h-21.87v15Z"/>
    <path d="m336.44,291v5.57h-27c0-15.99,0-31.82,0-47.65,1.69-.54,23.79-.68,26.58-.14v5.18c-2.38.27-4.77.09-7.14.12-2.5.03-4.99,0-7.49,0s-4.78,0-7.32,0v14.94h20.27v5.67h-19.9c-.63,2.17-.73,13.08-.18,16.3h22.17Z"/>
    <path d="m470.24,111.93h-19.77c-.64,1.94-.77,12.34-.21,16.2,7.31.4,14.68.02,22.28.24v5.13c-1.8.49-22.58.63-26.79.18-.5-1.79-.71-42.94-.25-47.72,1.72-.53,23.63-.65,26.65-.12v5.4h-22.06v15.01c6.72.24,13.34.04,20.15.17v5.52Z"/>
    <path d="m126.03,24.58h20.18v5.53h-20.18v16.34h22.5v5.45h-27.02c0-15.96,0-31.86,0-47.76,1.72-.49,23.01-.64,26.49-.15v5.35c-7.26.39-14.53-.04-21.96.24v15Z"/>
    <path d="m335.45,51.92V3.9h26.47v5.53c-2.36.15-4.74.05-7.12.07-2.41.02-4.82,0-7.23,0-2.41,0-4.81,0-7.17,0-.62,1.95-.77,10.58-.25,15.03h20.14v5.51h-19.76c-.77,2.19-.95,11.45-.38,16.44,7.3.09,14.66.02,22.23.08v5.37h-26.92Z"/>
    <path d="m271.09,85.75v5.49h-21.89v15.06h20.17v5.46c-6.58.37-13.26.01-19.87.25-.61,2.32-.7,12.95-.13,16.29h22.17v5.44h-27.01v-47.77c1.92-.53,22.34-.7,26.55-.22Z"/>
    <path d="m367.16,38.61c1.45-.44,2.69-.82,4.17-1.27.26.94.47,1.7.69,2.47.7,2.34,1.66,4.53,3.68,6.07,3.65,2.79,10.32,2.45,13.69-.71,2.92-2.74,3.18-7.71.37-10.55-1.2-1.22-2.69-2.23-4.21-3.05-1.82-.98-3.86-1.54-5.71-2.48-2.36-1.2-4.8-2.35-6.87-3.95-5.85-4.53-5.37-12.16-3.31-16.29,1.24-2.5,3.25-4.19,5.84-5.16,3.72-1.39,7.49-1.42,11.23-.12.93.32,1.86.76,2.66,1.33,3.59,2.55,5.3,6.21,6.12,10.67-1.46.42-2.79.8-4.31,1.23-.35-.95-.66-1.77-.97-2.59-2.21-5.79-9.93-8.08-14.98-4.43-2.89,2.08-3.3,6.69-.84,9.54,1.73,2,4.03,3.18,6.4,4.21,1.45.63,3.01,1.04,4.37,1.81,2.37,1.34,4.88,2.61,6.89,4.4,4.56,4.08,5.02,9.4,3.34,14.9-1.61,5.26-5.64,7.81-10.94,8.48-8.43,1.05-14.38-2.99-16.56-11.22-.25-.96-.45-1.94-.76-3.29Z"/>
    <path d="m209.37,120.36c1.52-.43,2.76-.79,4.16-1.19.41,1.34.72,2.52,1.14,3.67,2.45,6.76,11.12,9.04,16.63,4.39,3.23-2.72,3.61-7.9.63-10.89-1.21-1.21-2.7-2.22-4.22-3.03-1.82-.97-3.86-1.54-5.71-2.47-2.29-1.15-4.67-2.25-6.67-3.82-4.82-3.8-6.22-10.72-3.51-16.24,2.05-4.17,5.73-5.87,10.1-6.27,8.43-.79,14.29,3.92,15.75,12.84-1.33.39-2.71.79-4.25,1.24-.37-1-.66-1.84-.98-2.67-2.23-5.77-10.04-8.02-15.01-4.32-2.86,2.12-3.21,6.72-.73,9.55,1.69,1.92,3.9,3.08,6.2,4.08,1.37.6,2.83,1.02,4.15,1.71,2.13,1.11,4.35,2.16,6.22,3.62,5.28,4.13,6.75,11.54,3.73,17.55-1.41,2.81-3.59,4.72-6.52,5.85-6.77,2.61-17.19,1.4-20.25-9.88-.3-1.11-.52-2.25-.86-3.73Z"/>
    <path d="m434.17,112.07h-21.04c-.32,7.19-.01,14.3-.15,21.61h-4.2c-.48-1.66-.61-44.93-.1-47.99h4.23c.19,3.34.05,6.71.08,10.07.02,3.39,0,6.78,0,10.53,7.12.13,13.96.09,21.09.05.08-7.04.16-13.8.24-20.64h4.31v48.04h-4.47v-21.66Z"/>
    <path d="m560.3,15.59c-.98.3-1.83.6-2.7.83-.46.12-.95.14-1.54.22-.16-.56-.29-1.03-.44-1.48-2.02-6.06-7.82-8.59-13.8-6.2-4.66,1.86-4.97,7.53-2.53,10.13,1.12,1.19,2.46,2.25,3.87,3.08,1.63.96,3.49,1.55,5.19,2.41,2.51,1.27,5.09,2.46,7.43,4.01,2.87,1.91,4.66,4.71,5.22,8.17,1.49,9.23-3.71,17.15-14.93,16.49-6.83-.4-10.93-3.99-12.91-10.58-.38-1.25-.62-2.55-.99-4.07,1.48-.42,2.78-.79,4.23-1.2.37,1.31.63,2.42,1,3.5,2.36,6.89,11.19,9.26,16.77,4.52,3.12-2.64,3.55-7.73.74-10.72-1.11-1.19-2.53-2.18-3.97-2.95-1.89-1.02-3.93-1.77-5.94-2.56-2.65-1.04-5.1-2.38-7.29-4.24-5.03-4.27-5.39-11.41-2.96-16.17,1.81-3.56,4.97-5.2,8.75-5.9,8.65-1.6,15.92,3.77,16.81,12.71Z"/>
    <path d="m402.24,98.14c-1.38.42-2.77.85-4.31,1.32-.43-.79-.79-1.51-1.2-2.2-2.94-4.92-7.06-7.66-13-6.9-4.07.52-7.07,2.77-9.27,6.11-2.44,3.71-3.45,7.88-3.6,12.28-.15,4.11.18,8.17,1.99,11.93.82,1.7,1.8,3.41,3.07,4.79,5.41,5.89,14.34,5.39,19.09-1.05,1.31-1.78,2.23-3.85,3.51-6.1,1.15.3,2.54.66,4.12,1.07-1.75,5.65-4.32,10.38-9.29,13.39-7.1,4.31-16.31,2.45-21.74-4.28-2.51-3.11-3.99-6.68-4.78-10.57-1.74-8.55-.82-16.71,3.66-24.3,2.08-3.52,4.97-6.23,8.78-7.85,4.65-1.98,9.24-1.8,13.72.51,4.25,2.19,7.82,6.74,9.25,11.83Z"/>
    <path d="m315.04,213.81h-4.68c-1.44-4.56-2.87-9.11-4.33-13.72h-17.3c-1.38,4.48-2.77,8.97-4.21,13.64h-4.77c5.04-16.11,10.01-31.98,15-47.92h5.39c4.92,15.83,9.85,31.71,14.9,47.99Zm-17.3-40.81c-.18.02-.36.04-.53.06-2.15,6.95-4.31,13.9-6.51,21.01h13.46c-2.19-7.17-4.3-14.12-6.42-21.06Z"/>
    <path d="m366.96,178.18c-1.6.47-3,.87-4.51,1.32-.43-.79-.78-1.42-1.13-2.06-4.99-9.17-16.36-9.7-22.23-1.04-1.71,2.52-2.79,5.31-3.22,8.29-.75,5.23-.8,10.43,1.22,15.45.97,2.43,2.31,4.59,4.29,6.33,5.28,4.64,13.11,4.14,17.55-1.32,1.6-1.96,2.72-4.31,4.27-6.82,1.02.27,2.34.63,3.94,1.05-.84,3.12-2.1,5.88-3.87,8.36-7.07,9.94-20.73,9.81-27.88-.24-2.72-3.82-4.02-8.17-4.56-12.77-.83-7.11.19-13.92,3.69-20.24,2.02-3.65,4.8-6.59,8.63-8.36,5.87-2.7,11.5-2.15,16.69,1.71,3.42,2.55,5.55,6.05,7.11,10.32Z"/>
    <path d="m321.31,118.24c1.38.39,2.64.75,3.87,1.09-.92,7.07-7.14,13.99-13.7,15.38-7.18,1.53-14.32-1.65-18.38-8.15-3-4.8-4.15-10.13-4.23-15.68-.08-5.9,1.14-11.55,4.14-16.72,2.14-3.69,5.03-6.63,9-8.31,5.77-2.44,11.23-1.75,16.23,2.01,3.42,2.57,5.44,6.14,7.13,10.32-1.71.46-3.11.84-4.59,1.23-.48-.86-.88-1.58-1.28-2.29-5.54-9.74-17.44-8.63-22.41-.32-3.1,5.19-3.93,10.87-3.26,16.81.38,3.42,1.37,6.64,3.16,9.62,5.04,8.4,16.53,8.29,21.52.28,1-1.6,1.78-3.34,2.8-5.28Z"/>
    <path d="m348.79,85.66c4.95,15.93,9.88,31.82,14.89,47.99h-4.68c-1.42-4.51-2.85-9.08-4.29-13.66h-17.25c-1.38,4.44-2.8,8.99-4.26,13.69h-4.69c.27-.96.5-1.81.76-2.65,4.43-14.17,8.87-28.33,13.31-42.49,1.09-3.48.78-2.95,4.07-2.99.65,0,1.3.07,2.15.12Zm3.73,28.56c-.21-2.59-5.39-19.35-6.61-21.22-2.21,7.12-4.36,14.05-6.58,21.22h13.2Z"/>
    <path d="m497.91,9.52v-5.33c1.78-.54,27.23-.69,30.77-.18v5.5h-12.95v42.41h-4.64V9.52h-13.17Z"/>
    <path d="m205.85,52h-4.55V9.56c-4.49-.18-8.77.04-13.18-.13V3.93h30.8v5.5h-13.07v42.57Z"/>
    <path d="m372.87,165.86h4.56v42.22c2.48.26,4.87.1,7.24.13,2.41.03,4.82,0,7.24,0s4.8,0,7.4,0v5.29c-1.68.57-22.71.76-26.44.19v-47.82Z"/>
    <path d="m265.04,248.65h4.46v42.24c2.55.21,4.93.08,7.31.1,2.41.02,4.82,0,7.24,0h7.4v5.29c-1.67.57-22.61.77-26.19.23-.45-1.53-.67-44.59-.21-47.87Z"/>
    <path d="m255.58,208.18h21.98c.75,1.9.47,3.6.32,5.28-1.79.61-21.75.84-26.32.32-.5-1.68-.6-45.11-.09-47.97h4.11v42.36Z"/>
    <path d="m308.08,46.47h22.23v5.14c-1.75.61-22.83.77-26.6.18V3.92h4.38v42.55Z"/>
    <path d="m69.67,309.72c-12.73-16.19-12.45-49.31,0-64.93.83.39,1.71.79,2.81,1.3-5.33,9.82-7.66,20.15-7.69,31.15-.02,10.95,2.38,21.19,7.65,31.04-.97.5-1.83.95-2.77,1.44Z"/>
    <path d="m570.59,146.87c-.48-.19-.87-.32-1.23-.5-.51-.26-1-.57-1.49-.85,10.24-20.73,10.34-41.36-.11-62.23.85-.44,1.76-.92,2.65-1.38,12,14.72,13.38,47.41.18,64.95Z"/>
    <path d="m539.59,163.35c.8-.41,1.66-.86,2.49-1.29,11.81,13.26,13.88,47.52.15,64.85-.82-.4-1.68-.82-2.63-1.28,10.33-20.82,10.37-41.47-.01-62.29Z"/>
    <path d="m611.89,309.76c-.91-.46-1.72-.86-2.64-1.33,10.35-20.69,10.39-41.32.03-62.29.76-.42,1.66-.91,2.54-1.4,12.19,14.69,13.35,48,.08,65.02Z"/>
    <path d="m114.17,145.43c-1.1.57-1.96,1-2.78,1.42-12.74-15.77-12.52-49.67.08-64.97.81.44,1.66.89,2.71,1.46-5.48,9.83-7.78,20.24-7.78,31.2,0,10.88,2.35,21.19,7.77,30.89Z"/>
    <path d="m669.24,1.61c1-.52,1.86-.97,2.69-1.4,11.67,13.36,13.91,46.95.17,64.92-.85-.43-1.75-.88-2.88-1.44,5.57-9.82,7.84-20.2,7.83-31.19,0-10.91-2.38-21.18-7.82-30.88Z"/>
    <path d="m9.36,0c1.04.55,1.83.97,2.76,1.46-10.13,20.68-10.31,41.32,0,62.23-.8.44-1.63.89-2.6,1.42-.47-.57-.93-1.03-1.27-1.56-4.18-6.36-6.48-13.43-7.52-20.9C-.53,33.69-.2,24.77,2.06,15.97,3.51,10.31,5.85,5.04,9.36,0Z"/>
    <path d="m139.16,161.87c1,.5,1.86.92,3.02,1.5-5.51,9.77-7.78,20.19-7.81,31.15-.03,10.89,2.34,21.21,7.73,30.92-1,.54-1.78.96-2.79,1.5-.58-.77-1.15-1.45-1.62-2.19-4.01-6.18-6.14-13.06-7.14-20.27-1.23-8.88-.9-17.72,1.28-26.45,1.2-4.79,3.13-9.27,5.61-13.52.49-.85,1.08-1.64,1.73-2.63Z"/>
    <path d="m384.12,296.61h-4.26v-47.96h4.14c.52,1.75.66,44.76.11,47.96Z"/>
    <path d="m296.11,264.97c-.58-.93-.97-1.55-1.39-2.23,1.43-1.83,3.33-3.36,3.36-6.03-.52-.09-1.01-.14-1.47-.27-1.72-.49-2.62-1.75-2.9-3.4-.28-1.65.19-3.15,1.52-4.25,1.72-1.42,3.87-.8,4.84,1.46,1.13,2.63,1.03,5.35.28,8.05-.71,2.53-2.16,4.61-4.23,6.68Z"/>
    <path d="m325.87,234.44c1.15,1.47,2.05,2.63,3.03,3.9-2.54,2.65-4.99,5.19-7.55,7.86-.62-.75-1.13-1.37-1.8-2.17,2.06-3.13,4.1-6.22,6.31-9.59Z"/>
    <path d="m416.27,163.34c-.35-.33-.61-.53-.82-.78-.31-.38-.57-.79-.96-1.35,1.02-1.58,2.03-3.18,3.06-4.76,1-1.51,2.02-3.01,3.18-4.73,1.06,1.33,2.01,2.53,3.04,3.83-2.58,2.67-5.02,5.21-7.52,7.8Z"/>
  </g>
</svg>