<?xml version="1.0" encoding="UTF-8"?>
<svg id="Calque_2" data-name="Calque 2" xmlns="http://www.w3.org/2000/svg" viewBox="0 0 790.49 300.22">
  <g id="Calque_1-2" data-name="Calque 1">
    <path d="m103.11,103.33c10.84,8.85,21.5,17.55,32.17,26.26.17-.11.35-.22.52-.33-3.73-13.23-7.45-26.45-11.23-39.86,1.48-.99,2.91-1.94,4.3-2.86,1.61,1.29,23.81,34.82,26.72,40.33-1.06.69-2.15,1.4-3.5,2.29-3.36-5.13-6.67-10.18-9.98-15.24-3.26-4.97-6.51-9.94-9.77-14.91-.17.08-.35.16-.52.25,3.43,12.09,6.87,24.17,10.26,36.13-.25.32-.33.48-.46.57-3.46,2.26-2.65,2.28-5.66-.16-8.6-6.96-17.16-13.96-25.75-20.94-.34-.28-.74-.49-1.42-.44,6.49,9.98,12.99,19.95,19.61,30.13-1.28.83-2.36,1.53-3.66,2.38-8.85-13.56-17.59-26.96-26.42-40.49,1.65-1.06,3.1-2,4.8-3.09Z"/>
    <path d="m565.29,68.76c1.66-1.07,3.17-2.04,4.81-3.09,10.75,8.78,21.46,17.52,32.17,26.27.17-.11.35-.22.52-.33-3.72-13.22-7.44-26.44-11.22-39.87,1.51-1.01,3-2,4.72-3.14,8.81,13.49,17.51,26.83,26.4,40.45-1.1.76-2.15,1.49-3.49,2.42-1.98-2.35-3.35-4.99-5.01-7.42-1.73-2.54-3.38-5.14-5.06-7.71-1.64-2.5-3.26-5.02-4.9-7.52-1.63-2.49-3.28-4.97-5.16-7.38,2.97,12.17,6.66,24.13,10,36.46-1.09.73-2.23,1.49-3.52,2.34-9.76-7.96-19.44-15.84-29.11-23.72l-.53.48c6.45,9.9,12.89,19.8,19.44,29.86-1.26.84-2.34,1.56-3.64,2.42-8.83-13.54-17.58-26.93-26.44-40.51Z"/>
    <path d="m93.37,257.88c-.53.42-.84.69-1.18.93-.68.47-1.37.93-2.35,1.59-8.89-13.42-17.54-26.87-26.51-40.51,1.39-.9,2.67-1.73,4.01-2.61,12.52,6.85,24.95,13.66,37.38,20.46.14-.15.29-.29.43-.44-6.64-10.45-13.55-20.74-20.37-31.38,1.22-.8,2.3-1.51,3.63-2.38,8.84,13.55,17.59,26.94,26.4,40.44-.8.57-1.44.95-1.98,1.44-1.23,1.13-2.37,1.05-3.81.22-4.54-2.61-9.17-5.07-13.76-7.59-6.49-3.56-12.97-7.14-19.46-10.7-.78-.43-1.6-.79-2.83-1.39.97,2.79,2.7,4.58,3.94,6.65,1.29,2.13,2.7,4.19,4.06,6.28,1.36,2.09,2.72,4.18,4.08,6.27,1.36,2.09,2.74,4.17,4.1,6.26,1.36,2.08,2.71,4.17,4.2,6.46Z"/>
    <path d="m715.5,113.03c-.1,9.41-6.66,16.62-15.69,17.16-3.95.24-7.6-.9-10.91-2.94-8.7-5.36-13.76-13.26-15.92-23.13-.63-2.88-.62-5.76.06-8.64,2.36-9.98,12.02-15.34,21.74-12.03,3.27,1.11,6.17,2.9,8.71,5.23,6.25,5.74,10.44,12.64,11.72,21.14.16,1.06.2,2.15.3,3.22Zm-37.8-12.2c.25,1.71.36,3.46.79,5.13,1.29,4.92,3.9,9.15,7.39,12.8,2.44,2.55,5.29,4.58,8.77,5.48,4.98,1.28,9.41.38,12.87-3.69,2.15-2.53,3.04-5.61,2.8-8.81-.76-9.91-5.66-17.37-14.23-22.3-3.38-1.95-7.18-2.11-10.85-.72-4.89,1.85-7.33,6.02-7.53,12.11Z"/>
    <path d="m550.72,228.08c-.26.33-.38.56-.56.71q-2.9,2.29-6.09.54c-10.79-5.92-21.57-11.85-32.35-17.77-.78-.43-1.59-.81-2.89-1.48,1.5,3.35,3.51,5.75,5.14,8.38,1.67,2.68,3.43,5.3,5.15,7.95,1.68,2.58,3.37,5.15,5.04,7.72,1.71,2.63,3.42,5.27,5.29,8.16-1.23.8-2.31,1.51-3.65,2.39-8.79-13.47-17.53-26.86-26.33-40.36.46-.4.84-.7,1.18-1.02,1.78-1.7,3.44-1.43,5.53-.26,10.73,6.02,21.55,11.87,32.35,17.78.71.39,1.45.72,2.75,1.35-1.2-2.79-2.79-4.65-4.05-6.69-1.31-2.12-2.71-4.19-4.07-6.27-1.36-2.09-2.73-4.17-4.09-6.26-1.36-2.09-2.73-4.17-4.09-6.26-1.35-2.08-2.69-4.16-4.17-6.44,1.21-.81,2.29-1.53,3.62-2.41,8.81,13.49,17.55,26.88,26.28,40.25Z"/>
    <path d="m327.43,105.62c-1.32.87-2.34,1.54-3.65,2.41-8.8-13.47-17.5-26.8-26.4-40.43,1.17-.77,2.24-1.7,3.48-2.21.59-.24,1.59.17,2.27.54,4.55,2.43,9.06,4.92,13.58,7.4,6.85,3.76,13.7,7.53,20.56,11.28.49.27,1.01.46,1.71.52-3.03-5.42-6.54-10.49-9.88-15.67-3.37-5.23-6.79-10.43-10.29-15.81,1.15-.79,2.22-1.53,3.59-2.49,8.78,13.45,17.53,26.85,26.23,40.17-.14.29-.18.49-.29.58-3.15,2.53-3.14,2.52-6.71.55-10.49-5.77-20.99-11.53-31.49-17.29-.93-.51-1.89-.98-3.02-1.29,3.07,5.48,6.61,10.63,9.99,15.87,3.37,5.23,6.78,10.42,10.33,15.86Z"/>
    <path d="m273.68,228.57c-4.63-.17-8.68-1.89-12.22-4.62-7.86-6.05-12.72-13.99-13.82-23.91-.93-8.36,3.39-16.28,12.16-18.8,3.94-1.13,7.74-.55,11.43,1.03,3.02,1.29,5.71,3.1,8.04,5.38,5.79,5.68,9.73,12.36,10.93,20.5,1.37,9.24-3.54,17.32-12.11,19.72-1.42.4-2.94.47-4.41.7Zm-20.92-27.64c.99,7.88,5.39,15.37,13.8,20.32.99.58,2.12.96,3.23,1.27,6.29,1.77,12.51-1.25,14.62-7.12.85-2.37,1.14-4.83.76-7.35-1.12-7.52-4.91-13.52-10.74-18.21-1.7-1.37-3.82-2.35-5.89-3.12-2.89-1.07-5.9-.96-8.74.39-5.1,2.42-7.18,6.63-7.05,13.82Z"/>
    <path d="m184.5,99.54c.06,8.94-5.58,15.86-14.12,17.3-2.95.5-5.81.01-8.58-.98-3.42-1.22-6.43-3.13-9.02-5.65-5.96-5.79-9.87-12.68-10.99-21-1.06-7.86,2.62-17.52,13.44-19.73,3.83-.78,7.45.05,10.9,1.69,6.16,2.93,10.53,7.74,13.92,13.51,2.69,4.58,4.41,9.48,4.46,14.86Zm-25.62-24.86c-4.37-.34-9.4,2.57-11.12,7.43-.65,1.83-1.01,3.92-.86,5.85.73,9.52,5.4,16.73,13.51,21.69,1.18.72,2.58,1.16,3.93,1.51,4.36,1.11,8.24.19,11.47-3.02,3.15-3.12,4.02-7.04,3.48-11.23-1.03-8.11-5.25-14.4-11.68-19.25-2.5-1.89-5.36-2.98-8.73-2.97Z"/>
    <path d="m452.47,292.69c-8.93-13.69-17.66-27.08-26.6-40.78,5.05-3.07,9.8-6.27,14.84-8.93,4.1-2.17,8.6-1.97,12.74.16,2.33,1.2,4.62,2.7,6.52,4.5,4.9,4.64,8.49,10.21,10.43,16.72.61,2.05.98,4.21,1.13,6.35.34,4.75-1.09,9.03-4.85,11.99-4.48,3.53-9.32,6.59-14.21,10Zm.57-7.2c2.58-1.66,4.82-3.06,7.03-4.53,5.71-3.81,7.79-8.85,5.6-16.26-1.66-5.6-4.91-10.33-9.31-14.18-4.73-4.13-9.97-4.62-15.44-1.52-2.38,1.35-4.64,2.91-6.94,4.41-.45.29-.8.73-1.2,1.1,6.76,10.34,13.43,20.53,20.26,30.97Z"/>
    <path d="m538.2,117.47c3.44.73,5.68,2.95,7.96,5.15,3.11,2.99,6.29,5.9,9.44,8.86.23.22.41.49.74.9-1.33.86-2.57,1.65-3.95,2.54-.85-.67-1.67-1.22-2.37-1.89-2.16-2.07-4.21-4.25-6.41-6.28-1.52-1.4-3.13-2.74-4.84-3.88-2.04-1.36-4.22-1.32-6.32.07-2.63,1.74-5.27,3.45-8.13,5.32,3.83,5.9,7.56,11.64,11.36,17.5-1.2.81-2.22,1.5-3.22,2.18-1.44-1.11-16.26-23.41-26.63-40.03.11-.18.18-.45.36-.57,4.31-2.82,8.61-5.67,12.96-8.42,2.68-1.69,5.6-2.54,8.8-1.79,2.48.58,4.67,1.73,6.49,3.52,1.99,1.95,3.43,4.26,4.35,6.9,1.22,3.49,1.13,5.23-.59,9.93Zm-16.88,6.19c3.65-2.44,7.1-4.59,10.35-7.02,1.12-.83,2-2.26,2.48-3.59,1.13-3.11-.35-7.04-3.19-9.31-2.45-1.95-5.58-2.17-8.63-.32-3.13,1.89-6.14,3.97-9.19,5.98-.25.17-.42.46-.68.76,2.91,4.44,5.77,8.8,8.86,13.5Z"/>
    <path d="m325.49,171.61c3.86,5.92,7.56,11.61,11.4,17.49-1.18.84-2.28,1.63-3.58,2.55-8.87-13.59-17.6-26.99-26.42-40.52.58-.43,1.09-.84,1.63-1.19,3.83-2.5,7.65-5,11.5-7.46,2.74-1.75,5.68-2.69,9-2,2.26.47,4.21,1.52,5.94,3,3.14,2.71,5.03,6.14,5.77,10.2.35,1.92.03,3.56-1.23,6.95,1.08.49,2.29.83,3.24,1.52,1.67,1.22,3.22,2.61,4.75,4.01,3.12,2.85,6.2,5.76,9.29,8.64.23.22.44.46.83.87-1.33.89-2.55,1.69-3.98,2.64-1.05-.87-2.11-1.65-3.04-2.54-2.15-2.08-4.17-4.3-6.39-6.29-1.53-1.37-3.26-2.55-5.01-3.65-1.42-.9-3.07-.93-4.52-.05-3.04,1.85-6.01,3.81-9.16,5.83Zm-12-18.35c3.12,4.77,6.02,9.19,9.01,13.76,3.55-2.34,6.97-4.41,10.19-6.75,3.52-2.57,4.06-6.76,1.66-10.66-2.39-3.88-6.4-5.22-10.3-3.05-3.55,1.97-6.87,4.34-10.55,6.7Z"/>
    <path d="m469.89,44.83c4.83-3.13,9.28-6.2,13.91-8.96,5.43-3.24,11.68-2.1,15.68,2.79,1.4,1.71,2.53,3.71,3.43,5.73,1.34,2.99,1.43,6.11-.05,9.16-.11.22-.14.47-.19.71-.01.07.03.15.09.38,3.88,1.03,6.48,3.95,9.21,6.76,2.19,2.26,4.58,4.33,6.9,6.47.54.5,1.13.94,1.72,1.42-3.69,3.29-3.82,3.31-7.1.12-1.97-1.91-3.81-3.96-5.86-5.77-1.67-1.47-3.5-2.78-5.37-4-1.41-.92-3.08-.94-4.52-.07-3.05,1.84-6.02,3.81-9.17,5.83,3.83,5.88,7.53,11.57,11.41,17.53-1.2.81-2.26,1.52-3.63,2.44-8.83-13.53-17.57-26.92-26.46-40.53Zm15.7,15.99c3.63-2.41,7.1-4.52,10.34-6.93,3.42-2.54,3.86-6.85,1.4-10.67-2.4-3.73-6.35-5.03-10.11-2.93-3.6,2.01-6.99,4.41-10.64,6.75,3,4.6,5.89,9.01,9.01,13.79Z"/>
    <path d="m744.32,75.88c3.31.68,5.53,2.81,7.73,4.98,3.31,3.26,6.64,6.5,10.14,9.93-1.09.71-2.37,1.54-3.79,2.47-.97-.77-1.92-1.43-2.74-2.22-2.28-2.19-4.44-4.5-6.77-6.64-1.4-1.28-2.96-2.41-4.56-3.44-1.76-1.14-3.65-1.06-5.42.08-2.8,1.78-5.57,3.61-8.58,5.56,3.78,5.81,7.47,11.5,11.34,17.44-1.17.81-2.26,1.58-3.59,2.5-8.86-13.57-17.56-26.91-26.19-40.15.13-.34.14-.56.25-.63,4.45-2.91,8.83-5.94,13.39-8.68,4.91-2.95,9.76-2.5,14.08,1.27,4.08,3.56,6.53,7.96,5.79,13.6-.16,1.21-.64,2.38-1.08,3.93Zm-16.99,6.15c3.77-2.55,7.38-4.87,10.86-7.38,1.7-1.23,2.4-3.19,2.39-5.25-.02-3.29-1.5-5.94-4.24-7.72-2.72-1.76-5.55-1.42-8.22.21-2.19,1.34-4.31,2.79-6.46,4.2-1.08.72-2.15,1.46-3.28,2.23,2.98,4.56,5.82,8.92,8.95,13.71Z"/>
    <path d="m172.17,206.78c-1.48.95-2.78,1.79-4.21,2.71-1.03-.89-2.01-1.65-2.89-2.5-2.15-2.09-4.16-4.32-6.4-6.3-1.6-1.42-3.41-2.63-5.24-3.76-1.45-.9-3.08-.79-4.52.1-2.96,1.83-5.86,3.75-8.96,5.75,3.8,5.86,7.5,11.56,11.35,17.5-1.18.81-2.29,1.57-3.6,2.46-8.85-13.56-17.55-26.9-26.35-40.38.53-.41.95-.78,1.41-1.08,3.61-2.38,7.22-4.76,10.86-7.1,7.1-4.58,14.02-3.2,18.76,3.83,2.74,4.07,3.89,8.43,1.72,13.19-.09.2-.04.47-.07.85,3.91.99,6.45,3.84,9.14,6.58,2.38,2.43,4.98,4.64,7.49,6.94.41.37.86.7,1.5,1.23Zm-44.26-22.35c3.14,4.77,6.03,9.17,9.03,13.71,2.83-1.82,5.41-3.46,7.96-5.13.9-.59,1.8-1.19,2.62-1.89,3.16-2.7,3.59-6.8,1.17-10.53-2.35-3.62-6.27-5-9.89-3.02-3.69,2.01-7.13,4.47-10.88,6.86Z"/>
    <path d="m617.04,60.05c5.94-3.85,11.57-7.51,17.36-11.27,1.03,1.55,1.97,2.97,3.02,4.55-5.82,3.81-11.43,7.48-17.33,11.33,2.86,4.66,5.87,9.08,8.97,13.85,6.43-4.17,12.74-8.25,19.21-12.44,1.04,1.55,1.99,2.97,3.09,4.61-7.64,4.97-15.13,9.84-22.92,14.91-8.83-13.52-17.56-26.9-26.43-40.49,7.46-4.85,14.82-9.64,22.42-14.58,1.02,1.44,2,2.82,3.16,4.46-6.29,4.11-12.44,8.13-18.89,12.35,2.79,4.26,5.48,8.38,8.34,12.74Z"/>
    <path d="m756.11,61.8c5.81-3.76,11.45-7.42,17.34-11.23,1.02,1.45,1.99,2.84,3.13,4.48-5.86,3.83-11.58,7.57-17.42,11.38,3.07,4.7,5.96,9.14,9.01,13.82,6.39-4.15,12.64-8.2,19.19-12.45,1.04,1.51,2.04,2.98,3.14,4.58-7.66,4.98-15.16,9.87-22.95,14.94-8.8-13.49-17.54-26.87-26.44-40.49,7.43-4.83,14.79-9.62,22.3-14.5,1.45,1.12,2.03,2.86,3.3,4.38-6.4,4.18-12.56,8.2-18.9,12.34,2.78,4.27,5.44,8.35,8.3,12.74Z"/>
    <path d="m552.54,169.63c1.06,1.52,2.03,2.92,3.12,4.48-6.36,4.16-12.52,8.2-18.88,12.37,2.82,4.3,5.49,8.37,8.33,12.7,5.8-3.76,11.49-7.45,17.39-11.28.98,1.5,1.91,2.93,2.98,4.57-5.81,3.81-11.47,7.52-17.35,11.37,3.02,4.64,5.94,9.12,9,13.82,6.48-4.21,12.73-8.26,19.17-12.44,1.04,1.48,2.02,2.88,3.18,4.53-7.63,4.97-15.18,9.89-22.97,14.97-8.81-13.5-17.52-26.83-26.39-40.42,7.35-5,14.83-9.7,22.41-14.66Z"/>
    <path d="m35.61,237.84c7.52-4.89,14.89-9.68,22.47-14.61,1.02,1.45,2.01,2.84,3.15,4.47-6.29,4.11-12.46,8.14-18.92,12.35,2.79,4.27,5.49,8.4,8.33,12.74,5.83-3.78,11.51-7.45,17.38-11.26,1.03,1.56,1.97,2.98,3.01,4.55-5.88,3.85-11.55,7.56-17.37,11.37,3.08,4.7,6.02,9.19,9.05,13.8,6.49-4.21,12.75-8.28,19.2-12.46,1.02,1.52,1.97,2.93,3.09,4.59-7.63,4.98-15.12,9.86-22.9,14.93-8.86-13.36-17.5-26.81-26.48-40.47Z"/>
    <path d="m177.79,196.46c6.48-4.2,12.73-8.26,19.18-12.45,1.05,1.52,2.02,2.94,3.15,4.57-7.69,5-15.24,9.91-22.96,14.93-8.81-13.5-17.52-26.85-26.41-40.48,7.48-4.87,14.89-9.7,22.46-14.63,1.04,1.52,1.99,2.93,3.08,4.53-6.35,4.15-12.51,8.18-18.84,12.32,2.81,4.31,5.52,8.46,8.31,12.74,5.79-3.76,11.42-7.42,17.32-11.25,1.02,1.45,2,2.85,3.15,4.49-5.86,3.84-11.58,7.58-17.43,11.41,3.03,4.66,5.92,9.09,9,13.82Z"/>
    <path d="m269.87,85.74c7.62-4.96,14.99-9.76,22.55-14.68,1.01,1.54,1.94,2.97,3,4.58-6.28,4.1-12.45,8.14-18.86,12.33,2.8,4.28,5.5,8.41,8.33,12.73,5.81-3.77,11.5-7.46,17.36-11.26,1.03,1.54,1.98,2.96,3.04,4.54-5.84,3.82-11.52,7.54-17.38,11.37,3.04,4.66,5.97,9.15,9.02,13.81,6.47-4.19,12.72-8.25,19.18-12.43,1.05,1.53,2.01,2.94,3.13,4.57-7.64,4.97-15.13,9.85-22.94,14.92-8.8-13.48-17.54-26.88-26.42-40.48Z"/>
    <path d="m57.56,190.58c-8.83-13.54-17.54-26.89-26.43-40.52,7.46-4.85,14.88-9.68,22.49-14.63,1.02,1.48,2,2.89,3.12,4.52-6.29,4.1-12.46,8.12-18.93,12.34,2.8,4.27,5.51,8.39,8.35,12.7,5.86-3.79,11.55-7.46,17.46-11.29,1.03,1.58,1.96,3.01,2.97,4.57-5.87,3.84-11.56,7.55-17.42,11.38,3.03,4.65,5.96,9.15,9.01,13.83,6.4-4.15,12.65-8.21,19.14-12.41,1.06,1.49,2.04,2.87,3.2,4.5-7.66,5-15.14,9.89-22.95,14.99Z"/>
    <path d="m448.91,65.04c2.8,4.29,5.46,8.38,8.28,12.71,5.79-3.75,11.47-7.44,17.38-11.27,1.01,1.5,1.97,2.91,3.07,4.54-5.81,3.79-11.49,7.5-17.41,11.37,3.02,4.63,5.95,9.11,9.03,13.82,6.41-4.16,12.65-8.21,19.15-12.43,1.04,1.5,2,2.89,3.16,4.55-7.65,4.98-15.13,9.86-22.9,14.92-8.91-13.39-17.54-26.86-26.47-40.44,7.44-4.86,14.8-9.66,22.46-14.65.98,1.42,1.94,2.81,3.09,4.48-6.12,4.23-12.4,8.05-18.82,12.4Z"/>
    <path d="m442.93,76.48c-1.11,1.21-2.04,2.23-3.04,3.32-.85-.69-1.53-1.29-2.26-1.81-5-3.59-12.61-1.21-14.72,4.58-1.33,3.66,1.25,7.96,5.37,8.49,2.27.29,4.64.06,6.95-.15,2.06-.19,4.09-.74,6.14-1.04,2.83-.42,5.66-.41,8.38.57,5.25,1.9,8.25,5.9,9.31,11.14,1.07,5.3-1.13,9.56-5.37,12.83-7.99,6.17-16.86,3.43-21.85-3.54.94-.99,1.89-1.99,2.83-2.97,1.51,1.12,2.86,2.36,4.41,3.24,5.26,2.99,12.61.11,14.58-5.6,1.46-4.24-.8-10.03-6.58-10.3-2.79-.13-5.63.27-8.4.73-3.21.54-6.37,1.15-9.65.71-6.85-.92-12.48-8.14-11.29-14.63.22-1.21.6-2.46,1.22-3.5,2.56-4.32,6.41-6.99,11.35-7.77,5.2-.82,9.11,1.7,12.63,5.7Z"/>
    <path d="m14.22,293.2c1.01-1.07,1.96-2.07,2.9-3.06,1.42,1.08,2.65,2.21,4.04,3.06,5.67,3.47,13.5.23,15.17-6.21,1.17-4.54-1.71-8.83-6.35-9.47-3.36-.46-6.63.18-9.89.9-3.28.73-6.55,1.09-9.88.26-5.57-1.38-10.02-6.73-10.21-12.44-.08-2.5.7-4.76,2.19-6.75,2.78-3.7,6.5-5.89,11.08-6.53,1.04-.14,2.16.01,3.21.22,3.56.71,6.29,2.78,8.89,5.43-1.02,1.23-1.91,2.29-2.91,3.49-.76-.6-1.4-1.08-2.02-1.59-5.66-4.67-13.07-.61-15.02,4.1-1.34,3.25.64,7.26,4.12,8.44,2.18.74,4.42.69,6.67.35,3.04-.46,6.07-1.08,9.12-1.36,1.88-.17,3.87-.12,5.7.31,5.6,1.31,8.71,5.29,10.22,10.55,1.41,4.94-.07,9.2-3.83,12.63-4.26,3.87-9.13,5.84-14.88,3.93-3.39-1.12-6.03-3.39-8.32-6.28Z"/>
    <path d="m88.33,127.04c-1.12,1.27-2.03,2.3-3.02,3.42-.81-.66-1.44-1.18-2.08-1.69-5.69-4.55-13.11-.38-14.94,4.38-1.26,3.26.84,7.22,4.35,8.33,2.19.7,4.43.62,6.67.27,3.04-.47,6.07-1.08,9.12-1.35,1.88-.16,3.87-.08,5.69.38,5.58,1.39,8.66,5.39,10.1,10.67,1.35,4.95-.19,9.22-4.01,12.57-4.54,3.99-9.66,5.89-15.62,3.46-2.98-1.21-5.35-3.28-7.45-5.91.98-1.05,1.92-2.06,2.89-3.08,1.39,1.06,2.61,2.18,4,3.03,5.75,3.55,13.7.21,15.27-6.36,1.06-4.43-1.81-8.63-6.33-9.28-3.36-.48-6.63.15-9.89.87-3.28.72-6.55,1.1-9.88.29-5.59-1.36-10.03-6.65-10.27-12.38-.11-2.59.73-4.93,2.3-6.96,2.76-3.59,6.41-5.78,10.91-6.36,1.36-.17,2.85.02,4.18.4,3.1.88,5.64,2.72,8.01,5.3Z"/>
    <path d="m628.2,161.69c1.25-1.31,2.15-2.27,3.07-3.24,1.23.98,2.32,2.01,3.56,2.82,6.1,4.02,14.88.14,15.79-6.93.53-4.13-2.2-7.8-6.32-8.43-3.44-.53-6.8.1-10.14.85-3.36.76-6.73,1.07-10.13.21-5.62-1.42-10.02-7.01-9.97-12.82.02-2.68,1.04-5.05,2.73-7.07,2.31-2.76,5.3-4.51,8.75-5.47,2.78-.77,5.44-.33,7.99.9,2.19,1.05,4.06,2.51,5.84,4.48-.99,1.17-1.88,2.22-2.88,3.4-.64-.49-1.17-.85-1.64-1.26-4.95-4.4-11.73-1.99-14.68,2.61-2.4,3.74-.56,8.64,3.77,9.7,2.04.5,4.29.45,6.41.26,3.06-.27,6.07-1.06,9.13-1.3,2.04-.16,4.18.03,6.17.48,5.62,1.29,8.29,5.53,9.77,10.63,1.26,4.35.03,8.24-3.06,11.48-1.13,1.19-2.45,2.27-3.84,3.14-5.28,3.3-10.55,3.18-15.64-.43-1.61-1.14-3.01-2.56-4.69-4Z"/>
    <path d="m414.07,95.25c-1.01,1.13-1.93,2.17-2.91,3.27-.71-.61-1.25-1.11-1.83-1.56-5.07-3.97-12.85-1.75-15.12,4.3-1.19,3.17.69,6.96,4.12,8.23,2.18.81,4.42.67,6.66.35,3.13-.45,6.23-1.08,9.37-1.39,9.59-.95,14.83,5.43,16.1,12.53.67,3.74-.58,6.87-2.91,9.68-4.27,5.15-11,7.16-16.55,4.97-2.83-1.12-5.42-3.08-7.8-5.99.88-.99,1.79-2.02,2.75-3.11,1.15.93,2.19,1.87,3.32,2.66,5.52,3.86,13.33,1.37,15.65-4.96,1.72-4.71-1.09-9.47-6.03-10.25-3.37-.53-6.63.16-9.88.86-3.28.7-6.55,1.12-9.88.3-5.4-1.32-9.79-6.33-10.28-11.87-.28-3.17.79-5.97,2.93-8.2,1.47-1.53,3.21-2.94,5.07-3.96,6.1-3.32,12.73-1.73,17.22,4.14Z"/>
    <path d="m215.7,71.39c1.11-1.18,2.01-2.13,3.03-3.22.9.75,1.74,1.5,2.63,2.19,5.28,4.11,12.29,2.72,15.63-3.1,2.89-5.04.18-10.91-5.59-11.61-2.42-.3-4.95.11-7.41.38-1.89.2-3.75.76-5.64,1.03-7.58,1.07-13.64-2.42-16.09-9.17-.98-2.7-.99-5.33.16-7.99,2.48-5.72,9.86-9.86,15.67-8.65,3.47.72,6.17,2.73,8.71,5.47-.93,1.12-1.8,2.17-2.8,3.37-.78-.59-1.41-1.07-2.05-1.56-5.05-3.87-12.84-1.6-15.07,4.4-1.22,3.28.77,7.32,4.41,8.2,2.12.51,4.45.47,6.65.28,2.97-.25,5.9-1.06,8.87-1.3,2.04-.16,4.2-.06,6.16.47,5.86,1.58,8.87,5.92,10.05,11.55,1.14,5.41-1.3,9.54-5.49,12.72-6.09,4.62-12.62,4.45-18.5-.39-1.08-.89-2.07-1.91-3.33-3.08Z"/>
    <path d="m279.47,118.26c1.05-.29,2.31-.65,3.7-1.04,1.22,2.51,1.49,5.18,1.52,7.79.12,9.15-5.01,15.1-12.65,17.24-4.86,1.36-9.42.23-13.67-2.17-6.63-3.76-10.96-9.55-13.92-16.43-2.33-5.42-3.06-11.05-1.5-16.79,2.59-9.53,12.23-14.52,21.55-11.26,1.33.46,2.61,1.09,3.85,1.75,1.02.54,1.94,1.25,3.16,2.05-1.11,1.28-2.11,2.43-3.14,3.62-3.02-1.92-6.07-2.98-9.55-2.86-6.01.22-11.12,5.34-11.49,11.35-.56,9.08,3.37,16.05,9.97,21.77,2.96,2.57,6.45,4.04,10.5,3.9,6.08-.2,11-4.55,11.62-10.59.27-2.61.05-5.27.05-8.32Z"/>
    <path d="m590.29,145.23c1.21-.83,2.28-1.56,3.6-2.47,8.83,13.52,17.57,26.91,26.43,40.49-1.25.84-2.33,1.57-3.62,2.44-4.02-6.12-7.96-12.14-12.06-18.39-6.01,3.91-11.89,7.73-17.97,11.68,4.04,6.23,7.92,12.19,11.92,18.36-1.13.81-2.2,1.57-3.57,2.55-8.83-13.52-17.58-26.98-26.47-40.59,1.26-.81,2.41-1.56,3.67-2.38,3.87,5.91,7.63,11.65,11.48,17.51,6.04-3.94,11.87-7.74,17.95-11.71-3.78-5.83-7.51-11.57-11.36-17.49Z"/>
    <path d="m562.77,128.34c-1.44.87-2.63,1.59-4.06,2.44-4.61-16.35-9.16-32.46-13.74-48.68,1.53-.98,2.92-1.86,4.49-2.86,12.93,10.72,25.82,21.41,38.96,32.3-1.45.94-2.6,1.69-3.94,2.55-3.76-3.1-7.46-6.15-11.33-9.35-4.79,3.11-9.56,6.22-14.47,9.42,1.37,4.76,2.69,9.36,4.08,14.18Zm5.99-27.23c-5.93-4.95-11.56-9.65-17.19-14.35-.16.1-.32.2-.48.31,2.02,7.09,4.04,14.17,6.14,21.55,3.93-2.56,7.53-4.9,11.54-7.5Z"/>
    <path d="m258.26,150.67c-1.45.96-2.55,1.68-3.9,2.57-3.77-3.11-7.53-6.2-11.35-9.35-4.87,3.17-9.59,6.25-14.47,9.43,1.35,4.71,2.67,9.3,4.05,14.08-1.3.85-2.53,1.64-4,2.6-4.61-16.35-9.16-32.46-13.74-48.69,1.49-.99,2.85-1.91,4.42-2.96,12.92,10.71,25.81,21.4,38.99,32.32Zm-19.65-10.42c-5.96-4.98-11.61-9.7-17.25-14.42-.14.09-.29.18-.43.27,2.02,7.13,4.04,14.25,6.14,21.66,3.93-2.56,7.6-4.94,11.55-7.51Z"/>
    <path d="m447.33,145.68c1.61-1.02,2.99-1.9,4.49-2.86,12.99,10.78,25.88,21.47,38.93,32.29-1.41.93-2.58,1.7-3.9,2.57-3.74-3.09-7.45-6.15-11.33-9.35-4.79,3.11-9.56,6.21-14.49,9.4,1.36,4.73,2.68,9.32,4.06,14.12-1.26.79-2.49,1.58-4.04,2.55-4.6-16.3-9.13-32.37-13.74-48.72Zm23.57,19.16c-.3-.38-.46-.68-.69-.87-5.37-4.46-10.75-8.9-16.14-13.35-.05-.04-.17,0-.24.02-.07.02-.12.09-.33.27,2,6.95,4.03,13.98,6.12,21.25,3.96-2.57,7.57-4.92,11.28-7.32Z"/>
    <path d="m231.77,232.58c3.85,5.92,7.51,11.55,11.3,17.39-1.21.82-2.33,1.59-3.67,2.5-8.86-13.59-17.61-26.99-26.43-40.52.7-.49,1.29-.93,1.9-1.33,3.83-2.5,7.64-5.03,11.51-7.47,4.43-2.8,8.93-2.6,13.1.38,4.42,3.16,6.98,7.49,7.02,13.09.03,3.87-1.56,6.94-4.63,9.19-2.28,1.67-4.7,3.14-7.06,4.7-.96.64-1.92,1.29-3.04,2.06Zm-3.07-4.67c2.9-1.87,5.56-3.55,8.19-5.28.9-.59,1.79-1.23,2.55-1.98,2.71-2.65,2.95-6.52.68-10.01-2.35-3.62-5.78-5-9.39-3.43-3.96,1.73-7.28,4.51-11.02,6.93,3.02,4.62,5.91,9.05,8.98,13.77Z"/>
    <path d="m297.6,156.98c1.3-.83,2.39-1.52,3.57-2.28.55.76,1.01,1.34,1.41,1.96,5.05,7.72,10.09,15.44,15.12,23.17,2.1,3.23,3.7,6.66,4.41,10.49.64,3.44.03,6.61-1.82,9.54-4.83,7.68-14.42,9.31-21.39,3.53-1.9-1.58-3.7-3.42-5.07-5.45-5.85-8.68-11.52-17.48-17.25-26.24-.09-.14-.12-.31-.3-.76,1.06-.71,2.19-1.47,3.5-2.35.91,1.36,1.75,2.57,2.56,3.81,4.68,7.16,9.28,14.38,14.07,21.47,1.42,2.1,3.19,4.1,5.18,5.65,6.45,5.04,14.59-.5,15.57-5.91.48-2.64.04-5.16-1.07-7.52-.88-1.87-1.97-3.66-3.09-5.4-4.56-7.05-9.16-14.06-13.75-21.09-.5-.76-.97-1.54-1.65-2.62Z"/>
    <path d="m468.58,224.21c1.13-.72,2.17-1.38,3.49-2.22.59.85,1.16,1.62,1.68,2.42,4.86,7.45,9.72,14.9,14.58,22.34,1.6,2.45,3.39,4.73,5.85,6.4,6.55,4.45,14.38-.82,15.33-6.34.42-2.45.05-4.84-.99-7.05-.91-1.95-2.01-3.82-3.18-5.63-4.73-7.33-9.53-14.62-14.29-21.93-.35-.54-.66-1.11-1.1-1.85,1.18-.78,2.27-1.49,3.48-2.29.43.58.85,1.07,1.2,1.61,4.96,7.58,9.91,15.17,14.86,22.75,2.29,3.5,4.19,7.16,4.93,11.34.6,3.44.02,6.63-1.91,9.52-3.86,5.78-12.95,10.6-21.39,3.38-2-1.71-3.88-3.7-5.34-5.88-5.77-8.54-11.35-17.2-16.99-25.82-.08-.13-.08-.31-.2-.76Z"/>
    <path d="m635.31,20.07c-.57-.74-1.25-1.63-1.93-2.52,8.53-6.98,29.06-14.6,46.63-15.16,23.42-.74,43.58,7.39,61.75,22.14-.8.98-1.5,1.84-2.32,2.85-33.01-25.95-67.64-27.86-104.12-7.31Z"/>
    <path d="m374.73,19.42c32.07-24.82,75.41-26.31,108.5-1.81-.61.91-1.23,1.82-1.91,2.83-35.23-23.12-69.9-21.98-104.46,1.57-.58-.71-1.3-1.59-2.13-2.6Z"/>
    <path d="m508.19,23.97c-.85-1.02-1.52-1.84-2.4-2.9,14.59-10.84,30.68-17.18,48.58-18.67,22.19-1.85,41.94,4.9,60.18,17.53-.75,1.09-1.38,2.01-2.17,3.15-15.81-10.99-33.01-17.5-52.3-17.15-19.12.35-36.28,6.72-51.89,18.05Z"/>
    <path d="m243.32,25.2c-.68-.63-1.5-1.4-2.27-2.12,7.24-9.22,33.24-20.23,50.11-21.72,21.23-1.87,40.41,3.87,58.5,15.17-.79,1.15-1.42,2.06-2.09,3.03C311.55-2.09,277.01.34,243.32,25.2Z"/>
    <path d="m367.31,79.93c-1.25.78-2.29,1.44-3.63,2.28-2.78-3.82-5.18-7.86-7.78-11.77-2.62-3.94-5.18-7.93-7.77-11.89-2.58-3.95-5.17-7.9-7.93-12.12-3.79,2.45-7.39,4.77-11.21,7.23-.97-1.52-1.88-2.95-2.94-4.61,8.69-5.66,17.23-11.22,26-16.93,1,1.49,1.95,2.9,3.05,4.55-3.71,2.43-7.31,4.78-11.2,7.33,7.8,11.96,15.52,23.83,23.41,35.92Z"/>
    <path d="m505.17,114.48c-3.77,2.48-7.36,4.85-11.17,7.36,7.83,12,15.57,23.87,23.4,35.89-1.27.81-2.37,1.51-3.7,2.35-7.77-11.9-15.48-23.7-23.36-35.76-3.87,2.14-7.3,4.73-11.22,7.09-.99-1.48-1.92-2.89-3.02-4.54,8.71-5.67,17.31-11.26,26.11-16.99.99,1.55,1.88,2.93,2.95,4.6Z"/>
    <path d="m193.99,44.09c1.03,1.57,1.97,2.99,3.02,4.58-3.79,2.48-7.38,4.84-11.18,7.33,7.81,11.99,15.55,23.84,23.39,35.87-1.27.81-2.36,1.5-3.68,2.35-7.83-11.97-15.57-23.81-23.43-35.82-3.82,2.48-7.35,4.76-11.13,7.2-1.03-1.53-1.98-2.93-3.07-4.53,8.67-5.64,17.2-11.2,26.08-16.98Z"/>
    <path d="m117.82,184.47c1.05,1.58,1.95,2.94,3,4.54-3.71,2.46-7.28,4.83-11.15,7.39,7.8,11.96,15.53,23.81,23.38,35.85-1.29.84-2.38,1.55-3.68,2.4-7.79-11.94-15.52-23.8-23.4-35.87-3.75,2.41-7.3,4.69-11.12,7.15-1-1.45-1.96-2.84-3.1-4.49,8.68-5.65,17.23-11.21,26.07-16.97Z"/>
    <path d="m650.6,112.24c-3.9,2.53-7.43,4.82-11.17,7.24-1.06-1.62-1.98-3.05-2.98-4.59,8.7-5.66,17.25-11.22,26.01-16.92,1,1.47,1.95,2.89,3.07,4.55-3.72,2.43-7.31,4.77-11.21,7.32,7.78,11.94,15.5,23.79,23.38,35.87-1.19.78-2.27,1.49-3.65,2.4-7.8-11.93-15.55-23.77-23.45-35.86Z"/>
    <path d="m370.86,109.37c1.01,1.59,1.88,2.97,2.92,4.61-3.72,2.46-7.35,4.86-11.14,7.36,7.83,12.01,15.52,23.81,23.34,35.82-1.19.81-2.25,1.54-3.6,2.47-7.79-11.91-15.53-23.75-23.45-35.88-3.75,2.41-7.34,4.72-11.14,7.16-1.03-1.53-1.98-2.93-3.05-4.52,8.69-5.66,17.24-11.23,26.12-17.01Z"/>
    <path d="m224.15,166.26c1.06,1.63,1.95,3.01,3.02,4.64-7.5,4.88-14.91,9.71-22.52,14.66-8.83-13.52-17.57-26.91-26.42-40.47,1.26-.84,2.34-1.56,3.69-2.46,7.8,11.93,15.54,23.77,23.42,35.83,6.32-4.1,12.42-8.06,18.81-12.2Z"/>
    <path d="m4.74,167.27c1.18-.81,2.26-1.54,3.61-2.46,7.78,11.91,15.48,23.69,23.38,35.77,6.4-3.84,12.4-8.1,18.93-12.13.97,1.53,1.91,3.03,2.94,4.65-7.51,4.89-14.81,9.64-22.09,14.38-1.57-1.16-18.36-26.39-26.76-40.22Z"/>
    <path d="m410.77,169.48c1.22-.8,2.32-1.52,3.66-2.4,7.83,11.99,15.57,23.84,23.4,35.82,6.34-4.11,12.46-8.08,18.78-12.18,1.03,1.53,1.99,2.95,3.1,4.6-7.47,4.86-14.83,9.65-22.18,14.43-1.45-1.13-17.34-25.05-26.76-40.27Z"/>
    <path d="m701.7,72.66c1.37-.88,2.41-1.55,3.77-2.42,8.84,13.36,17.48,26.79,26.41,40.41-1.29.87-2.42,1.64-3.74,2.53-8.82-13.52-17.55-26.91-26.44-40.52Z"/>
    <path d="m404.98,144.8c-1.25.86-2.32,1.59-3.37,2.32-1.41-1.18-25.28-37.48-26.62-40.48,1.08-.68,2.19-1.37,3.6-2.26,8.81,13.48,17.54,26.86,26.4,40.42Z"/>
    <path d="m630.25,176.72c-1.28.86-2.42,1.63-3.76,2.53-8.86-13.58-17.6-26.97-26.46-40.54,1.26-.8,2.36-1.5,3.76-2.39,8.93,13.41,17.54,26.88,26.46,40.4Z"/>
    <path d="m33.34,258.95c-.9-.47-1.6-.84-2.4-1.25.41-2.33,1.08-4.63-.51-6.7-3.44,1.37-6.26-.06-6.74-3.35-.2-1.32.09-2.47,1.23-3.31,1.16-.86,2.35-.74,3.49-.04,2.95,1.82,4.38,4.69,5.23,7.89.56,2.12.56,4.27-.3,6.77Z"/>
    <path d="m466.1,245.45c-.83-.37-1.55-.69-2.22-.98q.38-4.94-.6-6.85c-3.51,1.22-6.06-.02-6.77-3.27-.29-1.34.04-2.46,1.08-3.34,1.08-.92,2.29-.89,3.48-.27.57.3,1.13.7,1.58,1.17,3.33,3.43,4.6,7.56,3.97,12.27-.05.38-.29.74-.51,1.28Z"/>
  </g>
</svg>