<?xml version="1.0" encoding="UTF-8"?>
<svg id="Calque_2" data-name="Calque 2" xmlns="http://www.w3.org/2000/svg" viewBox="0 0 370.87 771.87">
  <g id="Calque_1-2" data-name="Calque 1">
    <path d="m164.22,141.19h-5.65c0-6.21,0-12.16,0-18.12,0-8.82-.1-17.65.1-26.47.03-1.38,1.12-3.51,2.25-3.94,2.4-.93,4.28.09,5.13,2.96,2.98,10.01,6.14,19.97,9.25,29.94.58,1.87,1.28,3.7,2.36,6.81,3.86-12.6,7.47-23.97,10.78-35.42,1.17-4.04,3.12-5.57,7.44-3.87v47.98c-1.38.14-2.77.27-4.6.45v-33.14l-.95-.23c-.43,1.08-.95,2.13-1.28,3.23-2.51,8.25-4.91,16.54-7.51,24.76-.67,2.11-.07,5.28-3.89,5.36-4.15.09-3.51-3.39-4.23-5.61-2.88-8.92-5.53-17.92-9.21-26.77v32.06Z"/>
    <path d="m272.78,593.72c5.07,0,9.72-.03,14.37,0,11.24.09,16.89,9.75,11.53,19.7-.62,1.15-1.41,2.21-2.2,3.42,5.63,4.41,6.64,10.17,4.92,16.58-1.33,4.95-4.75,8.38-9.72,8.86-6.21.6-12.53.15-18.9.15v-48.71Zm4.68,42.85c4.62,0,8.77.35,12.83-.1,4-.44,6.61-2.87,6.85-7.24.23-4.35-1.44-7.75-5.81-8.59-3.85-.74-7.9-.59-11.86-.55-.68,0-1.89,1.42-1.92,2.22-.19,4.6-.09,9.22-.09,14.25Zm.27-22.84c4.08,0,7.88.25,11.64-.07,4.09-.35,6.16-3.17,6.29-7.08.14-4.19-2.47-6.48-6.4-6.82-3.74-.33-7.53-.07-11.52-.07v14.04Z"/>
    <path d="m319.51,194.94c-2.52,6.48-3.9,13-7.32,18.17-6.7,10.11-20.18,9.69-27.36-.09-7.16-9.74-7.15-26.86,0-36.62,7.17-9.77,20.77-10.19,27.35-.05,3.47,5.34,4.83,12.04,7.32,18.59Zm-6.41.07c-1.42-4.79-2.05-9.36-4.06-13.2-4.78-9.11-15.73-9.23-20.61-.2-4.73,8.76-4.73,17.96.28,26.67,4.74,8.24,15.1,8.41,19.84.14,2.31-4.02,3.08-8.91,4.54-13.42Z"/>
    <path d="m219.45,468.59c-1.76-1.42-4.16-2.49-5.19-4.33-6.03-10.83-11.75-21.84-18.48-32.63v35.45c-3.17.96-5.31,1.38-5.3-2.65.05-14.95.02-29.9.02-44.92,3.53-1.33,5.58-.67,7.31,2.72,5.62,11.03,11.57,21.88,18.31,32.59v-35.71h4.66v48.07c-.45.47-.9.93-1.35,1.4Z"/>
    <path d="m345.58,770.46c-2.29-.13-3.56-.21-5.08-.3v-47.97c3.54-1.55,5.4-.25,7.05,2.96,5.65,11,11.58,21.85,18.24,32.58v-35.81c2.66-.32,5.08-1.49,5.08,2.5,0,15.11,0,30.21,0,45.4-3.53,1.34-5.5.45-7.18-2.84-5.55-10.9-11.41-21.64-18.12-32.32v35.79Z"/>
    <path d="m69.9,770.21h-4.88v-48.01c3.42-1.49,5.33-.35,7,2.9,5.66,11.02,11.6,21.89,18.22,32.67v-35.86c1.82-.11,3.18-.19,4.85-.28v48.41c-3.71,1.27-5.51-.25-7.11-3.42-4.93-9.76-10.2-19.35-15.35-29-.58-1.08-1.28-2.1-2.72-4.44v37.02Z"/>
    <path d="m189.5,544.98v-48.07c3.48-1.21,5.28.01,6.85,3.08,5.49,10.73,11.29,21.31,18.11,31.83,0-4,0-8.01,0-12.01,0-6.48-.05-12.97.02-19.45.04-3.73.12-3.73,4.71-3.49v48.04c-3.28,1.32-4.95.17-6.43-2.69-5.71-11.04-11.65-21.97-18.57-32.91,0,1.48,0,2.97,0,4.45,0,9.31-.1,18.62.05,27.92.06,3.54-1.32,4.42-4.75,3.29Z"/>
    <path d="m100.07,361.59c-3.59,1.15-5.26-.47-6.76-3.39-5.5-10.71-11.25-21.29-18.06-31.75,0,5.68,0,11.37,0,17.05,0,4.82-.17,9.65.06,14.47.16,3.41-1.04,4.64-4.73,3.61v-48.05c3.26-1.31,5.07-.13,6.63,2.89,5.61,10.9,11.46,21.69,17.8,33.62.26-2.24.5-3.38.5-4.52.03-9.48.12-18.96-.04-28.44-.05-3.25.78-4.82,4.61-3.7v48.21Z"/>
    <path d="m348.15,205.81v-35.23c1.63-.12,3.01-.23,4.78-.36v48.39c-3.43,1.27-5.28.09-6.81-2.97-4.74-9.51-9.74-18.88-14.66-28.3-.81-1.56-1.71-3.08-3.3-5.94v37.4c-1.82.09-3.2.15-4.86.23v-48.42c3.82-1.36,5.58.4,7.12,3.5,4.59,9.21,9.43,18.29,14.19,27.41.81,1.56,1.69,3.08,2.54,4.62.33-.11.66-.23.99-.34Z"/>
    <path d="m122.81,15.02c5.05,0,9.84.07,14.63-.02,5.87-.11,10.52,1.94,12.73,7.62,2.24,5.79,1.78,11.43-2.28,16.43-.61.75-1.45,1.32-1.81,1.63,1.15,4.12,2.24,7.89,3.23,11.68.96,3.66,1.82,7.35,2.75,11.14-3.73,1.28-6.09.58-6.72-3.71-.43-2.95-1.21-5.85-1.9-8.75-1.68-7.06-2.91-8.01-10.17-7.99-1.64,0-3.28,0-5.45,0v20.61c-1.88.12-3.26.2-5.01.31V15.02Zm4.9,6.08c0,4.84-.16,8.98.12,13.08.07.98,1.57,2.59,2.5,2.66,3.29.24,6.68.31,9.9-.26,4.62-.82,5.99-4.51,5.66-8.63-.33-4.05-2.44-6.85-7-6.85-3.47,0-6.94,0-11.18,0Z"/>
    <path d="m38.75,427.11c-.68,9.75-2.04,16.54-7,22-7.25,7.99-18.81,7.68-25.71-.61-7.83-9.4-8.1-28.12-.55-37.86,8.06-10.4,22.67-9.41,28.83,2.45,2.6,5,3.48,10.9,4.42,14.01Zm-34.39,1.76c1.46,4.67,2.13,9.6,4.43,13.6,5.2,9.01,16.27,8.75,21.22-.41,4.65-8.6,4.57-17.68-.26-26.19-4.93-8.69-16.13-8.66-21.04.08-2.11,3.76-2.85,8.3-4.35,12.92Z"/>
    <path d="m336.7,746.24c-2.19,6.19-3.32,12.41-6.39,17.45-6.54,10.75-20.44,10.81-27.99.76-7.08-9.41-7.1-27.29-.04-36.66,7.63-10.12,21.32-10.14,27.97.66,3.17,5.15,4.28,11.57,6.44,17.78Zm-5.4.18c-1.82-5.15-2.78-10.33-5.33-14.56-4.35-7.21-13.54-7.39-19.01-1.02-6.44,7.49-6.5,22.74-.12,30.25,5.5,6.48,14.44,6.48,19.04-.67,2.58-4.01,3.57-9.04,5.43-13.99Z"/>
    <path d="m307.71,338.18c-2.22,5.94-3.51,12.48-6.86,17.69-6.41,9.96-19.71,9.83-27.09.53-7.96-10.04-7.57-29.31.79-38.58,7.43-8.23,18.95-7.92,26,.7,3.77,4.61,5.82,11.36,5.82,19.15.45.17.89.33,1.34.5Zm-5.36-.55c-1.85-5.1-2.85-10.28-5.45-14.47-4.42-7.14-13.63-7.14-19.03-.68-6.21,7.44-6.3,22.42-.17,29.87,5.58,6.78,14.66,6.79,19.34-.64,2.54-4.03,3.49-9.07,5.31-14.07Z"/>
    <path d="m117.12,467.66c-.2-1.18-.45-1.97-.45-2.76-.02-15.1-.02-30.21-.02-46,10.09.72,21.24-3.64,28.01,7.01,6.73,10.59,6.57,22.3.66,33.21-6.34,11.71-17.88,8.1-28.21,8.53Zm4.82-5.98c7.62.11,15.06,1.34,19.55-6.33,4.12-7.05,3.8-20-.66-25.72-5.05-6.48-12-4.75-18.89-4.64v36.7Z"/>
    <path d="m364.48,563.8c-4.12,1.72-5.65-.15-6.34-3.42-.71-3.41-1.43-6.82-2.15-10.23-.99-4.66-3.36-7.44-8.64-6.73-2.24.3-4.56.05-7.27.05v20.27c-.39.38-.77.76-1.16,1.13-1.28-.98-3.66-1.94-3.67-2.93-.24-15.27-.16-30.55-.16-46.13,6.85,0,13.39-.77,19.65.18,9.01,1.38,12.5,15.16,6.21,22.86-.83,1.01-1.82,1.88-2.27,2.34,1.98,7.7,3.85,15.01,5.8,22.6Zm-24.34-26.51c4.39,0,8.36.35,12.25-.09,4.36-.5,6.6-3.41,6.64-7.87.03-3.95-1.62-7.06-5.63-7.54-4.32-.52-8.74-.12-13.25-.12v15.62Z"/>
    <path d="m1.74,770.44v-48.88c9.59.72,19.87-2.88,27.26,6.5,6.01,7.63,6.56,24.74,1.32,33.8-6.76,11.68-18,8.01-28.58,8.58Zm5.13-42.82v36.74c7.22.15,14.81,1.78,19.01-5.73,4.47-8,4.53-16.8.37-24.83-4.01-7.74-11.91-6.35-19.37-6.18Z"/>
    <path d="m182.34,721.72c6.13,0,12.15-.66,17.98.15,10.03,1.38,14.15,15.2,7.29,23.36-.85,1.01-1.91,1.83-2.21,2.12,2.01,7.72,3.9,15.03,5.87,22.58-3.46,1.11-5.73.79-6.27-3.43-.39-3.11-1.18-6.19-1.94-9.24-1.67-6.71-3.11-7.8-9.94-7.8-1.8,0-3.61,0-6.01,0v20.69c-1.86.1-3.13.17-4.78.26v-48.69Zm4.92,21.81c4.05,0,7.52.1,10.99-.02,4.55-.16,7.36-3.02,7.64-7.52.27-4.34-2.39-7.94-6.77-8.36-3.88-.37-7.83-.08-11.86-.08v15.97Z"/>
    <path d="m118.36,119.08v16.29h22.02v5.78h-27.73c0-10.61,0-20.88,0-31.16,0-4.66-.16-9.32.11-13.97.07-1.21,1.45-3.33,2.29-3.36,8.26-.25,16.53-.15,25.01-.15v5.99h-21.6v14.79h19.68v5.79h-19.77Z"/>
    <path d="m202.5,141.2c0-15.61-.06-30.72.13-45.82.01-.98,1.86-2.74,2.89-2.77,7.95-.23,15.9-.13,24.23-.13.17,1.95.3,3.53.5,5.78h-21.8v14.79h19.38v6.1h-19.52v16.15h21.76v5.89h-27.57Z"/>
    <path d="m310.26,57.98h21.75v6.02c-8.51,0-16.92.07-25.33-.11-.8-.02-2.25-1.56-2.26-2.41-.14-15.27-.1-30.54-.1-46.13h27.38v5.68h-21.61v14.4h19.6c.14,2.14.24,3.74.39,5.96h-19.83v16.59Z"/>
    <path d="m157.81,15.34h26.72c1.41,4.39.13,6.04-4.32,5.82-5.62-.29-11.26-.07-17.24-.07v14.32h19.98c.11,2.24.18,3.83.29,6.2-5.73,0-11.16.12-16.58-.05-2.96-.09-4.25.8-4.08,3.94.21,3.93.05,7.89.05,12.27h22.25v5.94h-27.07V15.34Z"/>
    <path d="m77.18,127.85c2.05-.58,3.56-1,5.26-1.47.79,2.13,1.3,4.05,2.19,5.77,2.03,3.9,5.72,5.58,9.59,4.31,2.75-.9,5.89-3.27,7.03-5.8,1.81-4.02-.78-7.35-4.52-9.32-2.78-1.47-5.97-2.26-8.51-4.02-3.05-2.11-6.4-4.47-8.21-7.55-3.35-5.69-1.1-13.16,3.98-16.33,5.86-3.66,14.63-2.65,18.61,2.54,1.84,2.39,2.85,5.42,4.42,8.52-2.32.67-3.84,1.1-4,1.15-3.39-3.14-5.67-6.29-8.76-7.82-3.49-1.74-7.52-.59-9.38,3.2-1.84,3.78-.44,7.26,3.25,9.33,3.31,1.86,6.9,3.21,10.25,4.99,6.82,3.63,9.94,9.35,8.84,15.8-1.1,6.42-4.78,10.07-11.49,11.39-6.33,1.24-12.41-1.22-15.38-6.59-1.33-2.41-2.04-5.15-3.17-8.1Z"/>
    <path d="m272.69,119.04v16.3h22.12v5.77h-27.33v-48.59c8.46,0,16.88-.15,25.28.21.96.04,1.79,2.98,3.37,5.81-7.52,0-13.45.13-19.36-.05-3.11-.1-4.65.7-4.39,4.14.25,3.28.05,6.6.05,10.5h20.28c.13,2.18.23,3.78.36,5.91h-20.39Z"/>
    <path d="m70.03,63.4c3.5-11.2,6.9-22.06,10.3-32.93,1.33-4.26,2.46-8.61,4.12-12.75.49-1.22,2.47-2.4,3.85-2.51,1.14-.09,3.17,1.18,3.51,2.27,4.74,14.82,9.26,29.71,13.81,44.6.13.43.02.93.02,1.43-3.57,1.48-5.15.04-6.14-3.3-3.03-10.18-3.12-9.88-13.78-10.27-4.63-.17-7.11,1.05-7.72,5.74-.21,1.62-1.15,3.14-1.4,4.75-.55,3.63-2.62,4.19-6.56,2.98Zm24.28-19.72c-2.01-6.87-3.89-13.29-6.16-21.04-2.28,7.8-4.15,14.18-6.15,21.04h12.32Z"/>
    <path d="m223.62,63.41c-3.86,1.6-5.37.07-6.35-3.26-2.98-10.13-3.08-9.81-13.83-10.23-4.71-.18-7.03,1.22-7.69,5.8-.23,1.62-1.14,3.14-1.39,4.76-.57,3.66-2.68,4.12-6.04,3.07.15-1.11.14-2.24.45-3.27,4.24-13.76,8.53-27.51,12.79-41.27.71-2.28,1.33-4.18,4.56-4.1,3.04.08,3.43,1.92,4.07,4,4.14,13.45,8.3,26.89,12.43,40.34.42,1.37.67,2.79,1,4.15Zm-23.86-19.74h12.31c-1.99-6.82-3.87-13.23-6.14-21.01-2.29,7.79-4.16,14.16-6.17,21.01Z"/>
    <path d="m225.22,202.87c1.77.5,3.16.89,4.53,1.28-1.92,9.45-7.88,15.41-15.88,16.09-8.43.72-15.41-3.81-18.65-12.64-3.59-9.8-3.3-19.54,1.98-28.77,3.88-6.77,9.73-10.49,17.69-9.57,8,.93,12.24,6.38,15.03,13.44-3,1.9-4.88,2.14-7.07-1.24-5.75-8.87-16.14-8.33-21.2.99-4.02,7.41-4.11,15.33-1.04,23.08,1.93,4.87,5.39,8.39,11.11,8.62,5.71.23,9.25-2.94,11.74-7.67.53-1.01,1-2.06,1.76-3.62Z"/>
    <path d="m133.77,219.31c-10.24-.56-6.08-9.71-11.11-14.2-3.54,0-8.47-.15-13.39.12-1.01.06-2.38,1.53-2.8,2.65-1.33,3.53-2.29,7.21-3.44,10.98h-5.55c3.5-11.34,6.92-22.46,10.36-33.57,1.32-4.26,2.5-8.59,4.15-12.72.43-1.09,2.35-2.18,3.59-2.18,1.24,0,3.28,1.09,3.61,2.13,4.9,15.25,9.57,30.58,14.57,46.8Zm-17.66-39.7c-.33.04-.67.08-1,.11-1.88,6.34-3.77,12.68-5.7,19.17h12.29c-1.94-6.69-3.77-12.99-5.59-19.28Z"/>
    <path d="m52.41,219.36c-10.22-.67-5.99-10.23-10.83-14.11h-15.63c-1.03,3.22-2.38,6.43-3.02,9.76-.77,3.96-2.73,4.94-6.71,3.48,3.92-12.64,7.83-25.27,11.75-37.9.79-2.53,1.33-5.19,2.53-7.52.65-1.26,2.44-2.65,3.72-2.66,1.3,0,3.39,1.37,3.78,2.58,4.86,15.14,9.48,30.36,14.4,46.36Zm-17.72-39.85l-.98.22c-1.83,6.28-3.67,12.56-5.61,19.22h12.28c-1.94-6.64-3.81-13.04-5.68-19.43Z"/>
    <path d="m255.34,430.75c-1.8.5-3.15.88-4.82,1.34-1.51-5.72-4.66-9.45-10.65-8.29-2.4.47-5.38,2.22-6.44,4.26-1.55,2.97-.22,6.28,2.99,8.04,3.47,1.91,7.13,3.47,10.64,5.32,7.9,4.15,10.88,11.35,7.99,19.11-2.34,6.28-8.68,9.43-16.38,8.14-5.85-.98-11.4-7.09-11.38-12.83,0-.96,1.17-1.92,1.79-2.88,1.02.72,2.55,1.22,2.96,2.2,2.59,6.14,5.09,8.09,10.61,7.7,4.02-.28,7.01-2.11,8.17-6.11,1.16-4.02-.95-6.85-4.13-8.72-2.98-1.75-6.31-2.9-9.44-4.41-4.34-2.1-7.88-5-8.96-10.01-1.57-7.27,1.53-13.42,7.66-15.36,7.88-2.5,15.28.76,18.07,8.01.47,1.23.75,2.53,1.33,4.5Z"/>
    <path d="m129.07,733.91c-1.21.28-2.46.57-3.98.91-1.74-5.53-4.94-9.52-11.13-8.21-2.36.5-5.5,2.59-6.1,4.61-.61,2.05.79,5.74,2.56,7.2,2.98,2.46,6.96,3.7,10.5,5.51,7.46,3.82,10.29,8.82,9.38,16.42-.87,7.22-7,11.86-15.01,11.35-7.23-.46-14.05-6.91-13.64-13.31.08-1.2,1.89-2.28,3.51-4.11,1.07,2.89,1.56,4.58,2.3,6.16,2.71,5.71,11.12,7.21,15.68,2.85,3.73-3.57,3.09-9.25-1.77-12.27-3.07-1.9-6.61-3.05-9.88-4.65-5.06-2.48-8.7-6.08-9.04-12.11-.47-8.33,4.09-13.52,12.11-13.76,8.84-.27,14.36,4.75,14.5,13.4Z"/>
    <path d="m249.81,770.61c-9.81-.83-5.73-10.28-10.58-14.02h-15.73c-1.06,3.3-2.17,6.7-3.24,10.12q-1.25,4-6.14,3.08c4.75-15.35,9.45-30.69,14.34-45.97.32-.99,2.13-2.14,3.19-2.09,1.26.07,3.23,1.12,3.56,2.17,4.91,15.25,9.6,30.58,14.6,46.71Zm-17.94-41.27c-2.39,7.9-4.33,14.31-6.32,20.89h12.74c-2.08-6.75-4.03-13.12-6.42-20.89Z"/>
    <path d="m151.62,467.17c4.81-15.43,9.53-30.77,14.48-46.04.33-1.03,2.37-2.16,3.55-2.09,1.22.07,3.07,1.32,3.43,2.44,4.83,15.15,9.45,30.36,14.42,46.54-9.51-1.08-5.89-10.17-10.7-14.27-.56,0-2.04-.03-3.52,0-3.97.1-8.81-1.11-11.65.74-2.51,1.64-3.07,6.63-3.99,10.27-.91,3.61-3,3.28-6.02,2.41Zm24.31-19.54c-2.04-6.73-3.98-13.11-5.92-19.49-2.77,5.69-4.54,11.31-6.27,16.94-.23.75-.25,1.57-.39,2.55h12.58Z"/>
    <path d="m358.49,410.94c1.08,1.24,3.08,2.48,3.08,3.72.02,10.97.15,21.97-.69,32.89-.7,9.15-6.8,14.3-14.98,14.19-8.01-.11-14.14-5.64-14.59-14.7-.57-11.6-.14-23.24-.14-34.95,3.64-1.23,4.9-.15,4.83,3.55-.17,9.48-.22,18.98,0,28.46.22,9.17,7.29,14.47,14.46,10.47,2.68-1.5,5.23-5.48,5.52-8.55.85-9.08.54-18.26.67-27.41.03-2.13,0-4.26,0-6.39.61-.43,1.22-.85,1.83-1.28Z"/>
    <path d="m178.3,497.02c3.58-1.17,5.04-.44,4.97,3.19-.17,9.3.16,18.61-.18,27.9-.13,3.56-1.03,7.27-2.42,10.56-2.35,5.56-8.07,8.42-14.25,7.93-6.28-.5-11.36-4.36-12.71-10.81-1.04-4.98-1.11-10.19-1.27-15.31-.2-6.64-.08-13.29-.04-19.93.02-3.8.08-3.8,4.91-3.83,0,9.21-.08,18.43.04,27.66.04,2.96.33,5.97.98,8.85,1.09,4.8,4.41,7.4,9.29,7.43,4.8.02,8.31-2.32,9.58-7.11.67-2.53,1-5.22,1.03-7.84.12-9.6.05-19.2.05-28.68Z"/>
    <path d="m136.27,769.92v-47.93c6.33,0,12.67-.74,18.74.2,6.82,1.05,10.21,7.89,9.21,16.01-.83,6.69-5.67,11.12-12.38,11.25-3.31.06-6.62.01-10.72.01,0,5.83-.13,11.41.05,16.98.11,3.38-1.07,4.65-4.9,3.48Zm5.06-26.57c1.38.08,2.19.17,3.01.17,2.49.02,4.99.09,7.48-.01,4.69-.2,7.34-2.88,7.57-7.48.23-4.8-2.43-8.16-7.11-8.48-3.58-.25-7.19-.05-10.94-.05v15.85Z"/>
    <path d="m150.41,170.47h26.59c.08,1.83.15,3.43.25,5.57h-21.7v14.91h18.77v5.84h-18.81v21.9c-1.91.16-3.31.28-5.1.43v-48.66Z"/>
    <path d="m300.83,15.43v5.52h-12.97c0,6.66,0,12.75,0,18.84,0,6.98.11,13.96-.12,20.92-.04,1.13-1.6,2.21-2.45,3.31-.98-1.14-2.79-2.27-2.81-3.43-.22-10.96-.13-21.92-.13-32.88,0-1.96,0-3.93,0-6.51h-12.84c-.13-2.18-.23-3.76-.35-5.77h31.67Z"/>
    <path d="m235.44,141.12c0-15.62-.06-30.72.13-45.83.01-.94,1.92-1.86,2.95-2.79.81,1.15,2.3,2.29,2.32,3.46.18,11.14.11,22.28.11,33.42,0,1.8,0,3.59,0,5.99h21.84v5.74h-27.35Z"/>
    <path d="m245.97,176.08h-13.25c-.1-1.87-.19-3.45-.3-5.45h31.34v5.33h-12.4v42.76c-1.95.16-3.34.27-5.38.44v-43.07Z"/>
    <path d="m269.04,770.13h-5.19v-42.43h-13.05v-5.84h31.08c.08,1.77.15,3.37.25,5.46h-13.09v42.81Z"/>
    <path d="m182.34,279.74h-13.04v-5.68h30.95v5.48h-13.05c0,5.1,0,9.69,0,14.28,0,8.32-.11,16.63.05,24.95.07,3.37-1.01,4.68-4.92,3.45v-42.49Z"/>
    <path d="m68.79,218.71v-48.16c1.52-.1,2.9-.2,4.92-.33v42.87h22.13c.16,2.05.28,3.63.43,5.62h-27.48Z"/>
    <path d="m227.61,15.3c1.54-.07,2.82-.13,4.31-.21.21,1.11.55,2.05.55,2.99.04,11.8.14,23.61-.03,35.41-.05,3.47,1,4.69,4.51,4.54,5.77-.25,11.55-.07,17.3-.07,1.45,4.4.63,6.3-4.01,6.14-7.43-.26-14.88-.07-22.64-.07V15.3Z"/>
    <path d="m72.64,587.75c3.66-1.1,4.69.31,4.65,3.63-.13,10.96-.05,21.93-.05,32.9,0,1.8,0,3.59,0,5.94h21.92v5.74h-26.52v-48.21Z"/>
    <path d="m41.6,15.38h4.88v42.43h21.62v5.91h-26.5V15.38Z"/>
    <path d="m6.84,554.45v-48.38h4.55v42.58h22.06v5.8H6.84Z"/>
    <path d="m273.62,218.93h-5.14v-48.41h5.14v48.41Z"/>
    <path d="m181.9,170.47h5.05v48.31c-1.54.11-3.09.22-5.05.36v-48.67Z"/>
    <path d="m259.98,15.32h4.69v48.29c-2.5.37-5.3,1.72-5.29-2.9.03-14.59.04-29.18.08-43.77,0-.46.28-.92.51-1.63Z"/>
    <path d="m187.07,629.75v47.9c-4.61.7-4.69.7-4.7-3.43-.04-13.64.06-27.27-.07-40.91-.03-3.32.91-4.74,4.77-3.57Z"/>
    <path d="m53.52,721.99c2.89-.76,4.8-.79,4.78,2.84-.08,14.94-.03,29.89-.03,45.22-1.67.14-3.04.25-4.75.38v-48.45Z"/>
    <path d="m171.6,720.92c1.15,1.08,3.28,2.14,3.29,3.23.22,15.26.15,30.52.15,46-1.75.11-3.02.18-4.67.28v-48.29c.41-.41.82-.82,1.23-1.22Z"/>
    <path d="m291.11,770.22h-4.21c-.21-.64-.49-1.1-.49-1.56-.04-14.47.01-28.94-.12-43.4-.03-3.63,1.52-4.25,4.82-3.22v48.19Z"/>
    <path d="m216.49,84.98c-2.03,1.79-3.7,3.37-5.52,4.75-.46.35-1.67.32-2.08-.05-.42-.37-.61-1.59-.31-2.06,1.61-2.48,3.07-5.25,5.29-7.06,1.1-.9,4.24-.64,5.51.33,2.01,1.52,3.31,4.04,4.73,6.26.39.62.11,1.66.14,2.51-.85-.06-1.9.18-2.49-.24-1.73-1.23-3.28-2.73-5.27-4.44Z"/>
    <path d="m37.94,737.72c.83-2.14,1.66-4.29,2.21-5.69-1.34-2.59-2.93-4.66-3.35-6.94-.19-1.03,1.76-3.05,3.12-3.53.81-.28,2.9,1.31,3.48,2.52,2.12,4.41.33,9.92-5.46,13.65Z"/>
    <path d="m32.26,167.95c-2.48-2.63-4.95-5.26-7.54-8.01,1.12-1.31,2.07-2.41,3.57-4.16,1.88,4.24,6.57,6.64,5.63,11.6-.56.19-1.11.38-1.67.57Z"/>
    <path d="m167.65,13.02c-1.77-6.09,3.88-8.13,4.71-13.02,1.78,2.01,2.84,3.22,4.22,4.78-2.82,2.6-5.45,5.03-8.93,8.24Z"/>
    <path d="m320.01.8c1.24,1.42,2.18,2.49,3.35,3.84-2.58,2.74-5.01,5.33-7.44,7.91-3.03-2.7-2.86-3.19,4.09-11.75Z"/>
  </g>
</svg>