<?xml version="1.0" encoding="UTF-8"?>
<svg id="Calque_2" data-name="Calque 2" xmlns="http://www.w3.org/2000/svg" viewBox="0 0 592.61 698.55">
  <g id="Calque_1-2" data-name="Calque 1">
    <path d="m400.42,455.54v117.43h92.38v125.58H101.11v-125.39h91.4c.12-2.11.28-3.71.29-5.32.01-35.97-.04-71.93.09-107.9.01-3.86-1.02-5.25-5-6.12-34.85-7.67-68.5-18.68-99.03-37.73-12.92-8.06-24.62-17.56-34.28-29.46-21.72-26.77-21.59-58.6.47-85.21,16.77-20.23,38.71-33.17,62.13-43.98,4.48-2.07,9.07-3.9,13.5-6.8H.34c-.1-2.32-.23-3.94-.23-5.57-.01-38.3.06-76.59-.1-114.89-.02-4.31.98-5.67,5.5-5.64,29.62.21,59.24.11,88.87.11,1.95,0,3.9,0,6.2,0V0h392.46v124.56h99.59v125.83h-129.69c-.13.38-.26.76-.39,1.15,1.35.59,2.68,1.19,4.04,1.75,21.46,8.86,41.84,19.57,59.3,35.17,12.33,11.02,22.53,23.65,27.01,39.92,6.24,22.69-.69,42.32-15.27,59.69-16.06,19.15-36.89,31.76-59.25,42.13-23.44,10.87-48.02,18.23-73.19,23.8-1.13.25-2.27.49-3.38.81-.45.13-.85.44-1.38.73Z"/>
  </g>
</svg>