<?xml version="1.0" encoding="UTF-8"?>
<svg id="Calque_2" data-name="Calque 2" xmlns="http://www.w3.org/2000/svg" viewBox="0 0 682.62 497.1">
  <g id="Calque_1-2" data-name="Calque 1">
    <path d="m55.54,497.1v-125.03c2.23,0,4.17,0,6.12,0,21.16,0,42.33-.06,63.49.06,3.38.02,4.63-.85,4.62-4.45-.11-38.94-.07-77.87-.09-116.81,0-.97-.17-1.93-.33-3.54h-5.5c-15.33,0-30.67-.2-45.99.12-4.81.1-5.73-1.54-5.71-5.94.16-36.44.09-72.88.09-109.32,0-1.97,0-3.95,0-6.6H0V0h682.62v125.36h-72.51v121.87h-56.88v124.77h73.52v125.1H55.54Z"/>
  </g>
</svg>