<?xml version="1.0" encoding="UTF-8"?>
<svg id="Calque_2" data-name="Calque 2" xmlns="http://www.w3.org/2000/svg" viewBox="0 0 1399.8 387.41">
  <g id="Calque_1-2" data-name="Calque 1">
    <path d="m293.51,387.41c-22.41-34.35-44.56-68.29-66.99-102.68-52.61,34.23-104.95,68.29-157.81,102.68-22.94-35.17-45.75-70.15-68.7-105.34C144.6,187.96,288.81,94.11,433.41,0c22.31,34.19,44.52,68.24,67,102.69C552.99,68.48,605.35,34.4,658.22,0c21.94,33.63,43.78,67.09,65.93,101.05C775.83,67.43,827.32,33.92,879.43.01c22.69,34.76,45.33,69.45,68.19,104.46C1001.25,69.57,1054.44,34.96,1108.15,0c22.17,33.97,44.28,67.84,66.46,101.83C1226.88,67.82,1278.82,34.02,1331.1,0c22.92,35.14,45.68,70.04,68.7,105.34-144.54,94.07-288.72,187.91-433.4,282.07-22.15-33.94-44.18-67.71-66.45-101.83-52.12,33.91-104.05,67.7-156.49,101.83-22.67-34.74-45.24-69.32-68.16-104.46-53.54,34.84-106.82,69.5-160.55,104.46-21.97-33.67-43.82-67.15-65.94-101.05-51.8,33.71-103.29,67.21-155.3,101.05Z"/>
  </g>
</svg>