<?xml version="1.0" encoding="UTF-8"?>
<svg id="Calque_2" data-name="Calque 2" xmlns="http://www.w3.org/2000/svg" viewBox="0 0 685.17 444.48">
  <g id="Calque_1-2" data-name="Calque 1">
    <path d="m291.49,125.52H104.13V0h477.48v125.25h-187.83c-.08.35-.15.7-.23,1.05,10.15,4.7,20.3,9.42,30.46,14.1,85.46,39.34,170.92,78.68,256.42,117.93,3.45,1.58,4.75,3.37,4.74,7.35-.17,57.89-.11,115.77-.11,173.66v5.14H.11v-5.54c0-57.55.06-115.11-.11-172.66-.01-4.4,1.52-6.32,5.35-8.08,94.55-43.41,189.03-86.96,283.52-130.48.9-.41,1.78-.87,2.66-1.3-.02-.3-.03-.59-.05-.89Z"/>
  </g>
</svg>