<?xml version="1.0" encoding="UTF-8"?>
<svg id="Calque_2" data-name="Calque 2" xmlns="http://www.w3.org/2000/svg" viewBox="0 0 683.54 484.98">
  <g id="Calque_1-2" data-name="Calque 1">
    <path d="m599.31,484.98H82.74v-122.79H0v-125.57h151.18v-111.37c-1.98,0-4.05,0-6.12,0-46.11,0-92.21-.05-138.31.09-4.4.01-5.98-.9-5.95-5.7.21-38.26.12-76.53.12-114.79,0-1.47,0-2.94,0-4.84h682.26c.09,1.49.25,3.07.25,4.65.01,38.43-.07,76.86.12,115.29.02,4.66-1.62,5.4-5.76,5.39-46.94-.13-93.87-.08-140.81-.08h-6.74v109.49h5.96c47.1,0,94.21.07,141.31-.11,4.87-.02,6.05,1.4,6.03,6.14-.19,37.93-.11,75.86-.11,113.79,0,1.63,0,3.27,0,5.39h-84.12v125.03Zm-122.43-237.36H206.3v111.94h270.57v-111.94Z"/>
  </g>
</svg>